<?xml version="1.0" encoding="UTF-8"?>
<svg version="1.1" xmlns="http://www.w3.org/2000/svg" width="292" height="100">
<path d="M0 0 C5.39110082 2.30891591 10.41850492 1.33177739 15.8203125 -0.5859375 C23.0932789 -2.86443575 30.66967506 -2.59720397 37.5625 0.6875 C40.8983116 2.48285375 42.82659606 4.29131197 44.9375 7.4375 C43.62386625 10.35528265 42.19550273 12.31578729 39.9375 14.5625 C36.28526771 18.771092 35.04482807 22.88946453 34.9375 28.4375 C35.84463087 34.27026673 37.64098139 39.26373907 41.9375 43.4375 C43.89601344 44.83105764 45.88877113 46.18032547 47.9375 47.4375 C45.17036008 57.36664911 40.25871075 66.68724444 32.1015625 73.25390625 C28.09129553 75.44724721 24.34473271 75.2257298 19.9375 74.4375 C17.62252728 73.71958972 15.37084771 72.89685462 13.1015625 72.046875 C8.74360785 70.81972531 4.67603435 71.70250987 0.53515625 73.453125 C-4.00970306 75.17538747 -8.29370878 75.27035931 -13.0625 74.4375 C-23.17211696 69.36483001 -28.920053 56.0269405 -32.37109375 45.875 C-35.3795606 35.26887957 -36.20044776 21.35189534 -31.1875 11.30859375 C-27.61080928 5.35986162 -22.84462847 0.96778111 -16.109375 -1.1875 C-10.59774723 -2.19726387 -5.17376663 -2.27065109 0 0 Z " fill="#FFFFFF" transform="translate(34.0625,25.5625)"/>
<path d="M0 0 C3.3 0 6.6 0 10 0 C14.7077977 12.95212942 19.36547533 25.92140343 23.88897705 38.93911743 C24.33736571 40.22790468 24.78735379 41.5161366 25.23895264 42.80380249 C25.87355412 44.61498641 26.50137866 46.42854052 27.12890625 48.2421875 C27.49056885 49.2822998 27.85223145 50.32241211 28.22485352 51.39404297 C29 54 29 54 29 57 C26.03 57 23.06 57 20 57 C17.03 48.585 17.03 48.585 14 40 C7.73 39.67 1.46 39.34 -5 39 C-5.66 41.97 -6.32 44.94 -7 48 C-7.90943362 51.04117939 -8.95289477 54.00147138 -10 57 C-12.97 57 -15.94 57 -19 57 C-17.08672419 49.68773366 -14.91996178 42.51727548 -12.4609375 35.37109375 C-12.13461334 34.41477554 -11.80828918 33.45845734 -11.47207642 32.47315979 C-10.78961672 30.47529578 -10.10555011 28.47798001 -9.41992188 26.48120117 C-8.36733481 23.41517244 -7.31999417 20.34738865 -6.2734375 17.27929688 C-5.6070729 15.33062585 -4.94041691 13.38205443 -4.2734375 11.43359375 C-3.95990326 10.51597763 -3.64636902 9.59836151 -3.32333374 8.65293884 C-3.03278107 7.80768143 -2.74222839 6.96242401 -2.44287109 6.09155273 C-2.06006485 4.97549904 -2.06006485 4.97549904 -1.66952515 3.8368988 C-1 2 -1 2 0 0 Z M4 10 C2.9929564 13.1019264 1.99559195 16.20688098 1 19.3125 C0.57074219 20.63411133 0.57074219 20.63411133 0.1328125 21.98242188 C-0.13789062 22.82998047 -0.40859375 23.67753906 -0.6875 24.55078125 C-0.93886719 25.33106689 -1.19023438 26.11135254 -1.44921875 26.9152832 C-2.12771753 29.12403849 -2.12771753 29.12403849 -2 32 C2.62 32 7.24 32 12 32 C11.01184796 28.32972098 10.01254113 24.66355792 9 21 C8.73703125 20.03578125 8.4740625 19.0715625 8.203125 18.078125 C7.95046875 17.18609375 7.6978125 16.2940625 7.4375 15.375 C7.20933594 14.55773437 6.98117188 13.74046875 6.74609375 12.8984375 C6.16775837 10.80518331 6.16775837 10.80518331 4 10 Z " fill="#FFFFFF" transform="translate(117,27)"/>
<path d="M0 0 C4.84489288 2.33593049 8.73880496 5.66786537 10.6875 10.81640625 C13.23873909 19.86976163 12.28270203 27.63105017 8 36 C5.4370775 39.04472516 2.80411723 40.73196092 -1 42 C-2.95475009 42.1447963 -4.9151138 42.22067502 -6.875 42.25 C-8.41800781 42.28867188 -8.41800781 42.28867188 -9.9921875 42.328125 C-13 42 -13 42 -18 39 C-18.33 45.27 -18.66 51.54 -19 58 C-21.64 58 -24.28 58 -27 58 C-27 39.19 -27 20.38 -27 1 C-24.69 1 -22.38 1 -20 1 C-19.67 2.32 -19.34 3.64 -19 5 C-18.21625 4.360625 -17.4325 3.72125 -16.625 3.0625 C-11.46737261 -0.98992152 -6.38605629 -0.60182729 0 0 Z M-17 11 C-19.69316664 16.51909502 -19.65997811 21.97871824 -19 28 C-17.28910063 31.67526531 -16.09562214 33.31893759 -12.6875 35.4375 C-9.06099111 36.19653674 -6.58424608 35.96006591 -3 35 C0.11905047 32.42339309 1.7181368 30.8455896 3 27 C3.82923482 18.85809433 3.82923482 18.85809433 1.1875 11.375 C-1.85442593 8.07233756 -3.34659263 7.06323297 -7.875 6.625 C-12.04567931 6.74000035 -14.12740328 7.87393886 -17 11 Z " fill="#FFFFFF" transform="translate(223,42)"/>
<path d="M0 0 C4.59353996 2.92046183 7.46348204 6.89995429 8.8125 12.15234375 C9.59306534 19.50736153 10.06558125 27.05934627 6.09375 33.5703125 C3.4907039 36.78443954 0.53454565 39.29132093 -3.1875 41.15234375 C-5.30893022 41.30101541 -7.43605992 41.37367265 -9.5625 41.40234375 C-11.27566406 41.44101563 -11.27566406 41.44101563 -13.0234375 41.48046875 C-16.1875 41.15234375 -16.1875 41.15234375 -20.1875 38.15234375 C-20.5175 44.42234375 -20.8475 50.69234375 -21.1875 57.15234375 C-23.8275 57.15234375 -26.4675 57.15234375 -29.1875 57.15234375 C-29.5175 38.34234375 -29.8475 19.53234375 -30.1875 0.15234375 C-27.5475 0.15234375 -24.9075 0.15234375 -22.1875 0.15234375 C-21.8575 1.14234375 -21.5275 2.13234375 -21.1875 3.15234375 C-19.82625 2.16234375 -19.82625 2.16234375 -18.4375 1.15234375 C-12.87447468 -2.00229865 -5.96240405 -2.31043157 0 0 Z M-19.35546875 10.296875 C-21.69797467 13.94798763 -21.72199224 16.34081435 -21.6875 20.65234375 C-21.6978125 21.94140625 -21.708125 23.23046875 -21.71875 24.55859375 C-21.02115992 29.2775855 -19.1245333 31.68287021 -15.375 34.52734375 C-12.01077848 35.4885499 -9.56047281 34.98079321 -6.1875 34.15234375 C-2.26578579 31.71216602 -0.26537169 29.65980718 0.8125 25.15234375 C1.56580702 18.33781255 1.14006606 13.58954213 -3.1875 8.15234375 C-9.66170465 4.1943147 -13.85089395 4.85180912 -19.35546875 10.296875 Z " fill="#FFFFFF" transform="translate(180.1875,42.84765625)"/>
<path d="M0 0 C4.13447223 1.74083041 6.12513891 3.79726856 8.375 7.5625 C10 12 10 12 10 23 C0.76 23 -8.48 23 -18 23 C-15.12931046 31.72668464 -15.12931046 31.72668464 -10.6875 34.0625 C-4.55560079 35.62145743 0.8101369 35.01058989 7 34 C7.495 36.97 7.495 36.97 8 40 C1.35063768 43.23412564 -8.3691065 43.35986555 -15.4609375 41.27734375 C-20.13650373 38.75580475 -23.04817796 35.04641739 -25.25 30.3125 C-26.94512711 22.82568859 -26.84624942 14.82236373 -23 8 C-15.90510113 0.26670532 -10.36967275 -0.87150721 0 0 Z M-16 11 C-16.66 12.98 -17.32 14.96 -18 17 C-11.4 17 -4.8 17 2 17 C1.70994332 10.3367269 1.70994332 10.3367269 -1.1875 7.5625 C-7.5274439 4.04030894 -11.19771199 5.97942617 -16 11 Z " fill="#FFFFFF" transform="translate(282,42)"/>
<path d="M0 0 C2.64 0 5.28 0 8 0 C8 19.8 8 39.6 8 60 C5.36 60 2.72 60 0 60 C0 40.2 0 20.4 0 0 Z " fill="#FFFFFF" transform="translate(241,24)"/>
<path d="M0 0 C0.45446407 6.36249695 -0.28369936 10.7252507 -4 16 C-7.75635412 20.11107037 -11.48261562 22.77391458 -17 24 C-18.32 24 -19.64 24 -21 24 C-21.44067791 16.80226084 -19.65996335 11.83764451 -15.1875 6.25 C-10.76354757 1.38911399 -6.61926105 -0.47280436 0 0 Z " fill="#FFFFFF" transform="translate(61,0)"/>
</svg>
