<svg width="42" height="16" viewBox="0 0 42 16" fill="none" xmlns="http://www.w3.org/2000/svg">
<path d="M2.81707 8.77094L1.57841 12.5058H0L4.03332 0.632324H5.88247L9.93291 12.5058H8.29315L7.02381 8.77094H2.81707ZM6.7112 7.57238L5.54921 4.15544C5.28497 3.3798 5.10919 2.67494 4.93283 1.98837H4.89862L4.29993 4.14423L3.13795 7.57828L6.7112 7.57238Z" fill="black"/>
<path d="M11.1333 6.76311L11.0625 3.97906H12.4545L12.5253 5.44186H12.5595C13.193 4.40257 14.1981 3.78618 15.5901 3.78618C17.6522 3.78618 19.1999 5.53034 19.1999 8.12033C19.1999 11.1851 17.3337 12.6993 15.3247 12.6993C14.1969 12.6993 13.2113 12.205 12.6999 11.3615H12.6657V16H11.1321L11.1333 6.76311ZM12.6645 9.03517C12.6645 9.2711 12.6987 9.47519 12.7353 9.66866C13.0166 10.7422 13.9504 11.4836 15.0616 11.4836C16.7002 11.4836 17.6569 10.1458 17.6569 8.18875C17.6569 6.47821 16.7592 5.01895 15.1206 5.01895C14.0589 5.01895 13.078 5.77748 12.7772 6.93888C12.7123 7.14398 12.6769 7.35729 12.6722 7.57237V9.03517H12.6645ZM20.8025 6.76311L20.7317 3.97906H22.1238L22.1946 5.44186H22.2288C22.8623 4.40257 23.8673 3.78618 25.2594 3.78618C27.3214 3.78618 28.8692 5.53034 28.8692 8.12033C28.8692 11.1851 27.0029 12.6993 24.9939 12.6993C23.8662 12.6993 22.8805 12.205 22.3691 11.3615H22.3349V16H20.8013L20.8025 6.76311ZM22.3361 9.03517C22.3361 9.2711 22.3703 9.47519 22.4069 9.66866C22.6882 10.7422 23.622 11.4836 24.7332 11.4836C26.3718 11.4836 27.3285 10.1458 27.3285 8.18875C27.3285 6.47821 26.4308 5.01895 24.7922 5.01895C23.7305 5.01895 22.7496 5.77748 22.4488 6.93888C22.3839 7.14398 22.3485 7.35729 22.3438 7.57237V9.03517H22.3361ZM30.4735 0H32.0248V12.5064H30.4735V0ZM35.1404 8.52437C35.1746 10.6207 36.5147 11.4842 38.063 11.4842C39.1737 11.4842 39.8414 11.2907 40.4236 11.0442L40.6878 12.1548C40.1422 12.4026 39.2132 12.6833 37.853 12.6833C35.2282 12.6833 33.6604 10.9563 33.6604 8.38576C33.6604 5.81523 35.1746 3.78736 37.6596 3.78736C40.4436 3.78736 41.1809 6.2352 41.1809 7.79827C41.1809 8.11679 41.1467 8.36098 41.1219 8.51965L35.1404 8.52437ZM39.6851 7.4137C39.7028 6.42867 39.2793 4.89508 37.5351 4.89508C35.9673 4.89508 35.2801 6.34019 35.1581 7.4137H39.6851Z" fill="black"/>
</svg>
