<?xml version="1.0" encoding="UTF-8"?>
<svg version="1.1" xmlns="http://www.w3.org/2000/svg" width="337" height="150">
<path d="M0 0 C3.49261181 1.55999117 6.72268957 3.53440941 10 5.5 C12.03568412 6.68716125 14.07356591 7.87055965 16.11328125 9.05078125 C17.75804443 10.00331787 17.75804443 10.00331787 19.43603516 10.97509766 C25.93651836 14.69704023 32.57098146 18.17770816 39.1875 21.6875 C40.50717937 22.38928923 41.82684122 23.09111141 43.14648438 23.79296875 C50.03778183 27.46514976 50.03778183 27.46514976 57 31 C57 31.66 57 32.32 57 33 C56.3611084 33.34321289 55.7222168 33.68642578 55.06396484 34.04003906 C46.90610397 38.45261389 38.88644223 43.08711767 30.88134766 47.77001953 C29.18565782 48.76111854 27.48739011 49.74780285 25.7890625 50.734375 C24.79600098 51.31413086 23.80293945 51.89388672 22.77978516 52.49121094 C20.23108475 53.87457371 17.71476262 54.98948092 15 56 C15 58.31 15 60.62 15 63 C19.11685149 63.97573033 21.34111429 64.29275042 25.26171875 62.55078125 C26.41551427 61.82317611 27.55693911 61.07570733 28.6875 60.3125 C29.98775445 59.48614966 31.288568 58.66067862 32.58984375 57.8359375 C33.28835449 57.38444336 33.98686523 56.93294922 34.70654297 56.46777344 C39.00788236 53.71498949 43.38064812 51.08041542 47.75 48.4375 C48.61971436 47.9010083 49.48942871 47.3645166 50.38549805 46.81176758 C51.61006714 46.06769653 51.61006714 46.06769653 52.859375 45.30859375 C53.58608398 44.86314209 54.31279297 44.41769043 55.06152344 43.95874023 C57 43 57 43 60 43 C60.0926956 51.53619235 60.16376219 60.07217429 60.20724869 68.60874557 C60.22812052 72.57267793 60.25642999 76.53626587 60.30175781 80.5 C60.34523119 84.32552727 60.36914015 88.15072334 60.37950897 91.97647858 C60.38689778 93.43575505 60.40132665 94.89501346 60.42292023 96.35414886 C60.45197624 98.398932 60.45595541 100.4423482 60.45410156 102.48730469 C60.46298401 103.65090515 60.47186646 104.81450562 60.48101807 106.0133667 C59.89505202 109.65162027 58.84249437 110.73780395 56 113 C54.11960618 114.22799476 52.19778403 115.39368948 50.25 116.51171875 C49.68744507 116.83768036 49.12489014 117.16364197 48.54528809 117.4994812 C46.70001572 118.56772887 44.850104 119.62764606 43 120.6875 C40.38309716 122.19653125 37.76907356 123.71048043 35.15625 125.2265625 C34.48686401 125.61455521 33.81747803 126.00254791 33.12780762 126.40229797 C28.38395684 129.16357675 23.69613027 132.00601279 19.03125 134.8984375 C18.39388916 135.29225113 17.75652832 135.68606476 17.09985352 136.09181213 C14.62505564 137.62181182 12.15072549 139.15196761 9.68994141 140.70443726 C7.99717512 141.77210871 6.29563343 142.82582847 4.59375 143.87890625 C3.63146484 144.4829126 2.66917969 145.08691895 1.67773438 145.70922852 C-1.24544035 147.11831174 -2.80557187 147.47360855 -6 147 C-8.0637207 145.91821289 -8.0637207 145.91821289 -10.11328125 144.41015625 C-15.29611888 140.75703128 -20.69640269 137.60241056 -26.1875 134.4375 C-28.30232322 133.21004863 -30.41690063 131.98217367 -32.53125 130.75390625 C-33.59988281 130.13402832 -34.66851562 129.51415039 -35.76953125 128.87548828 C-40.91609483 125.88758763 -46.05530021 122.88750044 -51.1875 119.875 C-52.10104248 119.34318115 -53.01458496 118.8113623 -53.95581055 118.26342773 C-54.80957275 117.76141846 -55.66333496 117.25940918 -56.54296875 116.7421875 C-57.28571045 116.3076123 -58.02845215 115.87303711 -58.79370117 115.42529297 C-59.52177979 114.95494629 -60.2498584 114.48459961 -61 114 C-61.85879761 113.44682098 -62.71759521 112.89364197 -63.60241699 112.32369995 C-66 110 -66 110 -66.60127258 106.97540283 C-66.59016953 105.79403748 -66.57906647 104.61267212 -66.56762695 103.39550781 C-66.56835709 102.74143448 -66.56908722 102.08736115 -66.56983948 101.41346741 C-66.56636574 99.25916566 -66.52752245 97.10704718 -66.48828125 94.953125 C-66.47895217 93.4566974 -66.4718365 91.9602545 -66.46684265 90.46380615 C-66.44777974 86.53100188 -66.39868673 82.59912545 -66.34332275 78.66668701 C-66.29211401 74.65161694 -66.26932525 70.63639648 -66.24414062 66.62109375 C-66.19056581 58.74697071 -66.10526332 50.87360087 -66 43 C-62.59748722 44.33551774 -59.43627891 45.78039096 -56.25390625 47.58203125 C-55.34455322 48.09572266 -54.4352002 48.60941406 -53.49829102 49.13867188 C-52.52947998 49.69103516 -51.56066895 50.24339844 -50.5625 50.8125 C-49.05224243 51.67004883 -49.05224243 51.67004883 -47.51147461 52.54492188 C-36.93640707 58.57041377 -26.40647474 64.6869171 -16 71 C-15.32319183 71.29126266 -14.64638367 71.58252533 -13.94906616 71.88261414 C-11.55199584 73.04805392 -9.85349824 74.07515134 -8 76 C-6.87994968 79.88487313 -7.06662924 83.62967493 -7.21875 87.64453125 C-7.23006958 88.7694548 -7.24138916 89.89437836 -7.25305176 91.0533905 C-7.29778692 94.6415029 -7.39815535 98.22559858 -7.5 101.8125 C-7.54013019 104.24668703 -7.57663174 106.68093678 -7.609375 109.11523438 C-7.6975127 115.07819015 -7.83132356 121.03880818 -8 127 C-5.14221967 127.68493373 -5.14221967 127.68493373 -2 128 C-1.01 127.34 -0.02 126.68 1 126 C1.43883166 123.53797982 1.43883166 123.53797982 1.34057617 120.63232422 C1.34034958 119.51131317 1.34012299 118.39030212 1.33988953 117.23532104 C1.32440567 116.02071198 1.30892181 114.80610291 1.29296875 113.5546875 C1.28872391 112.31453888 1.28447906 111.07439026 1.28010559 109.79666138 C1.26613216 106.49864537 1.23917361 103.2010665 1.20599365 99.90319824 C1.17531238 96.53838458 1.16160446 93.17350696 1.14648438 89.80859375 C1.1133473 83.20555729 1.06309697 76.60281442 1 70 C0.26189087 69.5741713 -0.47621826 69.14834259 -1.23669434 68.70960999 C-10.32065833 63.46888638 -10.32065833 63.46888638 -14.19726562 61.23217773 C-19.58133414 58.12577207 -24.96553221 55.01959305 -30.35067749 51.91505432 C-32.08100688 50.91750278 -33.81125569 49.91981148 -35.54150391 48.92211914 C-37.69989383 47.67757514 -39.85841403 46.43325704 -42.01708984 45.18920898 C-44.00986472 44.04002399 -46.00128767 42.88849079 -47.99121094 41.734375 C-50.12774809 40.5027976 -52.27253918 39.28549013 -54.42285156 38.078125 C-55.52338867 37.45421875 -56.62392578 36.8303125 -57.7578125 36.1875 C-58.76215332 35.62417969 -59.76649414 35.06085937 -60.80126953 34.48046875 C-61.52685059 33.99191406 -62.25243164 33.50335938 -63 33 C-63 32.34 -63 31.68 -63 31 C-62.04637573 30.48953125 -62.04637573 30.48953125 -61.07348633 29.96875 C-46.38462617 22.09911043 -31.7504764 14.13891509 -17.17114258 6.06835938 C-16.57199539 5.73677322 -15.97284821 5.40518707 -15.35554504 5.06355286 C-13.72889433 4.16298791 -12.10271233 3.26157649 -10.4765625 2.36010742 C-6.54062388 0.19852283 -4.57552769 -0.53108804 0 0 Z " fill="#FFFFFF" transform="translate(68,2)"/>
<path d="M0 0 C5.28 0 10.56 0 16 0 C16 25.41 16 50.82 16 77 C2.89590203 80.74402799 -12.2329356 82.03981964 -24.8125 75.875 C-30.8275919 72.23144971 -34.89991724 66.68810139 -37 60 C-37.93342244 50.30223215 -38.20657428 41.04891507 -32 33 C-26.3432515 26.41509321 -19.90136759 23.44938575 -11.28125 22.79296875 C-7.22334716 22.7273262 -3.96919283 23.00770179 0 24 C0 16.08 0 8.16 0 0 Z M-19 41 C-22.03108515 45.44559155 -22.87923965 49.71468301 -22 55 C-20.65073044 59.26125246 -19.00785275 62.1937178 -15.5 65 C-10.68362793 66.54944226 -10.68362793 66.54944226 0 66 C0 56.76 0 47.52 0 38 C-6.17753647 34.91123176 -14.15353386 36.39585717 -19 41 Z " fill="#FFFFFF" transform="translate(320,33)"/>
<path d="M0 0 C5.28 0 10.56 0 16 0 C16 25.41 16 50.82 16 77 C2.642562 80.81641086 -12.81264294 82.20153452 -25.375 75.3125 C-31.81975892 71.10806204 -34.95297414 66.3781932 -37 59 C-38.02609309 48.15443466 -36.82650451 40.68509241 -30.8125 31.75 C-24.51377198 25.59124371 -17.7061608 22.8478944 -8.9375 22.875 C-7.68259766 22.87113281 -7.68259766 22.87113281 -6.40234375 22.8671875 C-4 23 -4 23 0 24 C0 16.08 0 8.16 0 0 Z M-19.8125 41.625 C-22.25138964 46.50277928 -22.23412518 51.43916545 -21.4375 56.75 C-19.40823367 61.33790647 -16.52965483 63.73517258 -12 66 C-7.71 66 -3.42 66 1 66 C1 56.76 1 47.52 1 38 C-6.44773271 35.51742243 -13.86894854 36.29629869 -19.8125 41.625 Z " fill="#FFFFFF" transform="translate(203,33)"/>
<path d="M0 0 C4.83941759 4.60416812 7.29583632 10.05772451 8.0234375 16.6484375 C8.1395371 25.99445517 7.01153995 34.41056104 0.5 41.54296875 C-6.65066354 47.87381099 -13.98540841 49.13321095 -23.3125 49.60546875 C-23.3125 44.98546875 -23.3125 40.36546875 -23.3125 35.60546875 C-20.80598958 34.921875 -18.29947917 34.23828125 -15.79296875 33.5546875 C-13.20954421 32.56606992 -12.00279712 31.76499662 -10.3125 29.60546875 C-8.6775731 24.70068805 -8.81450627 19.72373766 -9.3125 14.60546875 C-11.80709033 9.98585702 -13.25576912 9.6281611 -18.3125 7.60546875 C-22.2725 7.60546875 -26.2325 7.60546875 -30.3125 7.60546875 C-30.3125 28.06546875 -30.3125 48.52546875 -30.3125 69.60546875 C-35.2625 69.60546875 -40.2125 69.60546875 -45.3125 69.60546875 C-45.3125 45.51546875 -45.3125 21.42546875 -45.3125 -3.39453125 C-29.82546136 -8.04064284 -13.46562521 -10.99511736 0 0 Z " fill="#FFFFFF" transform="translate(271.3125,63.39453125)"/>
</svg>
