<?xml version="1.0" encoding="UTF-8"?>
<svg version="1.1" xmlns="http://www.w3.org/2000/svg" width="520" height="100">
<path d="M0 0 C1.3865928 1.00503039 2.76286959 2.02455663 4.125 3.0625 C5.15625 3.805 6.1875 4.5475 7.25 5.3125 C16.12181465 13.79858357 21.53879664 24.93125538 22.328125 37.2265625 C22.53850766 52.75981584 18.36643159 65.4238085 7.57421875 76.8046875 C-2.31766221 85.92351875 -15.70068388 90.47371346 -29.0390625 90.2734375 C-43.70132561 89.18285595 -56.04475547 82.96452587 -65.875 72.0625 C-74.36502997 60.50262868 -77.06952404 48.24951841 -75.875 34.0625 C-73.71017981 21.25817596 -67.63032817 10.0997247 -57.3359375 2.0859375 C-40.2143682 -9.5093616 -17.77602675 -11.37078075 0 0 Z M-52.1875 22.9375 C-57.50842736 30.62167302 -58.93708162 37.72100943 -57.875 47.0625 C-55.70758739 56.01597828 -50.50688631 62.86436627 -42.875 67.9375 C-35.32649623 72.23233835 -27.55766084 73.32887576 -19.10546875 71.4453125 C-10.16365132 68.61894783 -3.57206209 63.45854769 1.125 55.3125 C4.83322206 48.1535713 5.34090977 40.17518084 3.4765625 32.3359375 C0.2551826 23.44272631 -5.25045462 17.26531722 -13.68359375 13.02734375 C-28.13573018 6.6642819 -42.45765687 10.76921952 -52.1875 22.9375 Z " fill="#FFFFFF" transform="translate(178.875,6.9375)"/>
<path d="M0 0 C14 0 14 0 17.82421875 3.375 C18.82757057 4.88528219 19.78054587 6.42993587 20.6875 8 C21.21674072 8.81871582 21.74598145 9.63743164 22.29125977 10.48095703 C23.37667995 12.16296016 24.44319777 13.85731542 25.49023438 15.56347656 C27.67704458 19.0926431 30.05843792 22.47409119 32.4375 25.875 C33.32036814 27.16573903 34.20184424 28.45743116 35.08203125 29.75 C39.16183183 35.7155432 43.33061773 41.61940493 47.49389648 47.52685547 C48.06567627 48.34041504 48.63745605 49.15397461 49.2265625 49.9921875 C49.73783691 50.71776855 50.24911133 51.44334961 50.77587891 52.19091797 C52 54 52 54 53 56 C53.33 37.52 53.66 19.04 54 0 C59.94 0 65.88 0 72 0 C72 31.35 72 62.7 72 95 C57 95 57 95 53.40234375 91.984375 C52.12719727 89.97314453 52.12719727 89.97314453 50.9375 87.75 C49.96802122 86.17852898 48.99658475 84.60826443 48.0234375 83.0390625 C47.53456055 82.21180664 47.04568359 81.38455078 46.54199219 80.53222656 C43.93182453 76.24586511 40.97941849 72.20584408 38.0625 68.125 C31.27183964 58.48719435 24.65793691 48.73083086 18 39 C17.67 57.48 17.34 75.96 17 95 C11.39 95 5.78 95 0 95 C0 63.65 0 32.3 0 0 Z " fill="#FFFFFF" transform="translate(223,0)"/>
<path d="M0 0 C0.86753906 0.44730469 1.73507812 0.89460937 2.62890625 1.35546875 C14.32327827 7.85621505 21.36269651 17.55250117 26 30 C29.22955214 42.55173456 27.86687876 56.53359392 22 68 C14.62714103 80.07465738 3.5759926 88.04129276 -9.9375 91.8125 C-23.16063697 94.76409307 -36.57455935 92.86420278 -48.30078125 85.9140625 C-59.46197715 77.99946627 -66.16024645 68.03846748 -70 55 C-72.1738731 41.79331231 -70.47827627 28.31998428 -63 17 C-48.56221966 -1.95494726 -22.35398403 -12.01387162 0 0 Z M-45 23 C-51.15200018 31.16612942 -53.88223369 38.87411598 -52.6640625 49.05859375 C-50.92300385 56.77045941 -47.25514966 64.01968795 -40.86328125 68.82421875 C-32.71879811 73.96360958 -25.68161268 75.9128745 -16 75 C-7.11791286 72.71752533 0.28872106 68.04127551 5.375 60.375 C9.54810323 52.73764944 10.79475512 45.28314709 9 36.75 C6.36518597 27.89794934 0.32690004 20.46827925 -7.82421875 16 C-20.63087086 10.22172746 -35.10285656 12.8646321 -45 23 Z " fill="#FFFFFF" transform="translate(387,4)"/>
<path d="M0 0 C49.57542644 0 49.57542644 0 59.3125 9.20703125 C66.43309724 16.77266582 67.73795739 24.78303018 67.44140625 34.875 C66.87055299 42.60567743 63.19978228 49.37049342 57.5 54.5625 C54.53642594 56.80003142 51.40392862 58.50559231 48 60 C51.56631122 64.91572627 55.31552721 69.62476288 59.25 74.25 C59.71680176 74.79914063 60.18360352 75.34828125 60.66455078 75.9140625 C62.59921584 78.18688197 64.53622568 80.45767707 66.47607422 82.72607422 C67.88447278 84.37604734 69.28651178 86.0312341 70.6875 87.6875 C71.51636719 88.66074219 72.34523438 89.63398437 73.19921875 90.63671875 C75 93 75 93 75 95 C56.09354476 97.36239829 56.09354476 97.36239829 49.81201172 93.73730469 C45.98074674 90.37697236 43.17316462 86.27678271 40.38671875 82.03955078 C38.24986348 78.89671823 35.75594965 76.10018799 33.25 73.25 C28.4270808 67.55584379 23.72781734 61.77844342 19 56 C18.67 68.87 18.34 81.74 18 95 C12.06 95 6.12 95 0 95 C0 63.65 0 32.3 0 0 Z M18 17 C18 25.91 18 34.82 18 44 C23.259375 44.12375 23.259375 44.12375 28.625 44.25 C30.265896 44.30462402 30.265896 44.30462402 31.93994141 44.36035156 C37.98536096 44.42911253 41.40086734 44.02330629 46 40 C48.97835973 36.91893821 49.83218216 34.27935489 50 30 C48.25204763 24.13921851 45.88036039 21.38637252 41 18 C38.10600775 17.04904274 35.4875522 16.88184086 32.453125 16.90234375 C31.69161133 16.90484131 30.93009766 16.90733887 30.14550781 16.90991211 C29.18999023 16.91901611 28.23447266 16.92812012 27.25 16.9375 C24.1975 16.958125 21.145 16.97875 18 17 Z " fill="#FFFFFF" transform="translate(436,1)"/>
<path d="M0 0 C5.94 0 11.88 0 18 0 C18 12.54 18 25.08 18 38 C29.88 38 41.76 38 54 38 C54 25.46 54 12.92 54 0 C59.94 0 65.88 0 72 0 C72 31.35 72 62.7 72 95 C66.06 95 60.12 95 54 95 C54 81.8 54 68.6 54 55 C42.12 55 30.24 55 18 55 C18 68.2 18 81.4 18 95 C12.06 95 6.12 95 0 95 C0 63.65 0 32.3 0 0 Z " fill="#FFFFFF" transform="translate(9,1)"/>
</svg>
