<?xml version="1.0" encoding="UTF-8"?>
<svg version="1.1" xmlns="http://www.w3.org/2000/svg" width="457" height="100">
<path d="M0 0 C3.96 0 7.92 0 12 0 C15.3 10.23 18.6 20.46 22 31 C24.10074128 27.84888808 25.02312673 25.18412845 26.1640625 21.58203125 C26.56367188 20.32841797 26.96328125 19.07480469 27.375 17.78320312 C27.79176872 16.45966755 28.20843407 15.13609942 28.625 13.8125 C29.04904683 12.47707618 29.47352115 11.14178803 29.8984375 9.80664062 C30.93650979 6.53907217 31.97017778 3.27017611 33 0 C36.3 0 39.6 0 43 0 C43.29769287 0.90355225 43.59538574 1.80710449 43.90209961 2.73803711 C45.00484906 6.08030897 46.11026736 9.42167287 47.2175293 12.76245117 C47.69679899 14.21033645 48.17499257 15.65857838 48.65209961 17.10717773 C49.33687284 19.18567425 50.02546772 21.26287003 50.71484375 23.33984375 C51.12855225 24.59144287 51.54226074 25.84304199 51.96850586 27.13256836 C52.72065363 29.86265872 52.72065363 29.86265872 54 31 C57.3 20.77 60.6 10.54 64 0 C67.96 0 71.92 0 76 0 C75.31728024 5.58833612 73.53012491 10.6121527 71.65625 15.88671875 C71.32709595 16.82554398 70.99794189 17.7643692 70.65881348 18.73164368 C69.61046246 21.71856496 68.55537236 24.70305325 67.5 27.6875 C66.78991033 29.70622048 66.08027002 31.72509909 65.37109375 33.74414062 C63.81259836 38.17997374 62.24974292 42.61424415 60.6829834 47.04716492 C60.10734819 48.69306236 59.55139226 50.34582321 59 52 C55.7 52 52.4 52 49 52 C39 25.73333333 39 25.73333333 39 21 C38.34 21 37.68 21 37 21 C36.74347656 22.26972656 36.48695313 23.53945313 36.22265625 24.84765625 C35.03290961 30.19889555 33.29008892 35.28462895 31.4375 40.4375 C31.12103516 41.33404297 30.80457031 42.23058594 30.47851562 43.15429688 C28.1679586 49.66408279 28.1679586 49.66408279 27 52 C23.7 52 20.4 52 17 52 C14.7356242 45.39940732 12.47539841 38.7974138 10.21899414 32.1940918 C9.45092634 29.9482596 8.68172912 27.70281333 7.91137695 25.45776367 C6.80382365 22.22936362 5.70034918 18.99959414 4.59765625 15.76953125 C4.25283707 14.76727005 3.90801788 13.76500885 3.55274963 12.7323761 C3.23249313 11.79177841 2.91223663 10.85118073 2.58227539 9.88208008 C2.30025772 9.05823318 2.01824005 8.23438629 1.72767639 7.38557434 C0.99001291 4.96725887 0.49584416 2.47922078 0 0 Z " fill="#FFFFFF" transform="translate(313,32)"/>
<path d="M0 0 C3.63 0 7.26 0 11 0 C12 1 12 1 12.11352539 2.94946289 C12.10828857 3.7821167 12.10305176 4.61477051 12.09765625 5.47265625 C12.09515869 6.28226807 12.09266113 7.09187988 12.09008789 7.92602539 C12.07643188 9.47858032 12.07643188 9.47858032 12.0625 11.0625 C12.0315625 15.9815625 12.0315625 15.9815625 12 21 C18.93 21 25.86 21 33 21 C32.96041741 14.4629715 32.96041741 14.4629715 32.90991211 7.92602539 C32.90741455 7.11641357 32.90491699 6.30680176 32.90234375 5.47265625 C32.89710693 4.64000244 32.89187012 3.80734863 32.88647461 2.94946289 C33 1 33 1 34 0 C37.63 0 41.26 0 45 0 C45 17.16 45 34.32 45 52 C41.04 52 37.08 52 33 52 C32.67 45.4 32.34 38.8 32 32 C25.73 32 19.46 32 13 32 C12.67 38.6 12.34 45.2 12 52 C8.04 52 4.08 52 0 52 C0 34.84 0 17.68 0 0 Z " fill="#FFFFFF" transform="translate(157,32)"/>
<path d="M0 0 C9.78708742 22.10788782 8.86368171 49.49508237 6 73 C5.67 73.66 5.34 74.32 5 75 C4.34 75 3.68 75 3 75 C1.83007813 73.55737305 1.83007813 73.55737305 0.53125 71.51171875 C-0.19481445 70.37222778 -0.19481445 70.37222778 -0.93554688 69.2097168 C-1.45181641 68.37738525 -1.96808594 67.54505371 -2.5 66.6875 C-3.03173828 65.83389893 -3.56347656 64.98029785 -4.11132812 64.10083008 C-25.07185906 30.03372162 -25.07185906 30.03372162 -22.60546875 15.11328125 C-20.88635166 9.11300804 -16.84387572 5.55876583 -12 2 C-7.9601191 -0.17532048 -4.54659194 -0.17829772 0 0 Z " fill="#FFFFFF" transform="translate(58,0)"/>
<path d="M0 0 C7.24413698 0.28632952 12.18508273 1.03995001 17.4375 6.4921875 C22.19935085 11.93043762 22.42055608 16.42792302 22.328125 23.421875 C20.90119421 38.98221555 9.53179697 55.11442086 1.5625 68.1875 C1.1497583 68.87690674 0.7370166 69.56631348 0.31176758 70.27661133 C-0.87109375 72.16796875 -0.87109375 72.16796875 -3 75 C-3.99 75 -4.98 75 -6 75 C-7.09606322 66.31104718 -7.21973299 57.68878791 -7.24023438 48.9440918 C-7.24988532 46.4669362 -7.28096834 43.99063195 -7.3125 41.51367188 C-7.40727543 27.2430854 -6.31159974 13.03970099 0 0 Z " fill="#FFFFFF" transform="translate(75,0)"/>
<path d="M0 0 C12.54 0 25.08 0 38 0 C38 3.3 38 6.6 38 10 C29.09 10 20.18 10 11 10 C11 12.97 11 15.94 11 19 C17.27 19 23.54 19 30 19 C30 22.3 30 25.6 30 29 C23.73 29 17.46 29 11 29 C11 32.96 11 36.92 11 41 C20.24 41 29.48 41 39 41 C39 44.3 39 47.6 39 51 C26.13 51 13.26 51 0 51 C0 34.17 0 17.34 0 0 Z " fill="#FFFFFF" transform="translate(396,33)"/>
<path d="M0 0 C1.37478516 0.01740234 1.37478516 0.01740234 2.77734375 0.03515625 C3.69644531 0.04417969 4.61554688 0.05320312 5.5625 0.0625 C6.27277344 0.07410156 6.98304688 0.08570312 7.71484375 0.09765625 C8.23916992 1.29253662 8.76349609 2.48741699 9.30371094 3.71850586 C11.26411065 8.18588419 13.22478849 12.65314041 15.18554688 17.12036133 C16.03132494 19.04741177 16.87702933 20.97449455 17.72265625 22.90161133 C18.94381269 25.68449438 20.16524115 28.4672579 21.38671875 31.25 C21.75980164 32.10037338 22.13288452 32.95074677 22.51727295 33.82688904 C22.87734436 34.64706009 23.23741577 35.46723114 23.60839844 36.31225586 C23.95495483 37.10332733 24.30151123 37.8943988 24.65856934 38.70944214 C25.38753288 40.35761329 26.12653554 42.00136808 26.87365723 43.64138794 C27.42394592 44.85252762 27.42394592 44.85252762 27.98535156 46.08813477 C28.317547 46.81138443 28.64974243 47.53463409 28.99200439 48.27980042 C29.71484375 50.09765625 29.71484375 50.09765625 29.71484375 52.09765625 C25.75484375 52.09765625 21.79484375 52.09765625 17.71484375 52.09765625 C13.71484375 43.34765625 13.71484375 43.34765625 13.71484375 41.09765625 C6.12484375 41.09765625 -1.46515625 41.09765625 -9.28515625 41.09765625 C-10.27515625 44.06765625 -11.26515625 47.03765625 -12.28515625 50.09765625 C-12.61515625 50.75765625 -12.94515625 51.41765625 -13.28515625 52.09765625 C-17.24515625 52.09765625 -21.20515625 52.09765625 -25.28515625 52.09765625 C-22.29354747 45.094045 -19.29239499 38.09457043 -16.28515625 31.09765625 C-15.87641266 30.1465094 -15.87641266 30.1465094 -15.45941162 29.17614746 C-13.69836289 25.07931965 -11.93407515 20.98390572 -10.16635132 16.88995361 C-9.57813094 15.52666758 -8.99075088 14.16301868 -8.40420532 12.79901123 C-7.57512508 10.87152925 -6.74301876 8.94538135 -5.91015625 7.01953125 C-5.42804688 5.9015918 -4.9459375 4.78365234 -4.44921875 3.63183594 C-2.83663699 0.1212238 -2.83663699 0.1212238 0 0 Z M1.71484375 15.09765625 C0.71043035 17.38747965 -0.28883237 19.67931615 -1.28515625 21.97265625 C-1.57132812 22.62363281 -1.8575 23.27460937 -2.15234375 23.9453125 C-3.7444139 27.39403964 -3.7444139 27.39403964 -4.28515625 31.09765625 C0.00484375 31.09765625 4.29484375 31.09765625 8.71484375 31.09765625 C6.94681202 25.62517708 5.06049377 20.3474444 2.71484375 15.09765625 C2.38484375 15.09765625 2.05484375 15.09765625 1.71484375 15.09765625 Z " fill="#FFFFFF" transform="translate(288.28515625,31.90234375)"/>
<path d="M0 0 C3.63 0 7.26 0 11 0 C11.09945752 5.12282759 11.17174409 10.24508354 11.21972656 15.36865234 C11.23974522 17.10866089 11.26696886 18.84860299 11.30175781 20.58837891 C11.35070952 23.10075346 11.37306587 25.61223275 11.390625 28.125 C11.41127014 28.89303955 11.43191528 29.6610791 11.45318604 30.45239258 C11.45583971 36.95354718 9.47883733 42.00690504 5.32421875 47.0234375 C-0.23088735 51.61070889 -5.54611607 53.50833906 -12.89453125 53.23828125 C-20.34236562 52.3953909 -24.75761299 49.95374915 -29.58984375 44.23046875 C-32.9068197 38.98395 -33.28052558 33.82207441 -33.1953125 27.7578125 C-33.1924826 26.98944061 -33.18965271 26.22106873 -33.18673706 25.42941284 C-33.17561311 22.99444479 -33.1505236 20.55985538 -33.125 18.125 C-33.11496011 16.46615118 -33.10583603 14.80729654 -33.09765625 13.1484375 C-33.07569937 9.09881421 -33.04122406 5.04947113 -33 1 C-29.37 1 -25.74 1 -22 1 C-21.98541748 1.9379541 -21.97083496 2.8759082 -21.95581055 3.84228516 C-21.89453283 7.34269379 -21.82034068 10.84234449 -21.73754883 14.34228516 C-21.70442074 15.85324904 -21.67635145 17.36433307 -21.65356445 18.87548828 C-21.61979319 21.05553082 -21.56747104 23.23448439 -21.51171875 25.4140625 C-21.48553467 26.7232666 -21.45935059 28.0324707 -21.43237305 29.38134766 C-20.97256372 33.22962201 -19.993589 35.69905353 -18 39 C-14.65260696 41.63009453 -11.11837695 41.29416978 -7 41 C-4.48451193 40.18416603 -3.40994884 39.59814335 -1.92041016 37.42480469 C-0.61212698 33.97815521 -0.64237792 30.59296613 -0.5859375 26.953125 C-0.56657135 26.18192322 -0.5472052 25.41072144 -0.5272522 24.6161499 C-0.46762923 22.16087795 -0.42114086 19.70555867 -0.375 17.25 C-0.33680425 15.58201118 -0.29775159 13.91404174 -0.2578125 12.24609375 C-0.16194209 8.16422057 -0.07784765 4.08225507 0 0 Z " fill="#FFFFFF" transform="translate(248,32)"/>
<path d="M0 0 C6.18770814 2.87323361 9.26021927 8.88401008 11.9375 15 C13.69749446 20.35420002 13.21930649 24.99739063 11.11328125 30.18359375 C2.53580895 45.36328448 -20.40988583 55.99595625 -36 62 C-35.05847072 56.30485 -32.58812657 51.76612945 -29.9375 46.6875 C-29.41454346 45.68436768 -28.89158691 44.68123535 -28.3527832 43.64770508 C-20.16249749 28.3103988 -9.98230815 14.20328801 0 0 Z " fill="#FFFFFF" transform="translate(111,17)"/>
<path d="M0 0 C3.31605149 1.1053505 3.77989232 1.67926479 5.75 4.40234375 C6.53032593 5.47585083 6.53032593 5.47585083 7.32641602 6.57104492 C7.87869873 7.3519751 8.43098145 8.13290527 9 8.9375 C9.57741943 9.74872314 10.15483887 10.55994629 10.74975586 11.39575195 C39 51.54206099 39 51.54206099 39 62 C33.72302169 60.46959266 29.19940364 58.11132055 24.4375 55.4375 C23.25148193 54.7736731 23.25148193 54.7736731 22.04150391 54.09643555 C-6.41366872 37.93958738 -6.41366872 37.93958738 -10 26 C-11.56271612 17.78457809 -7.98436978 11.51688399 -3.5546875 4.8125 C-2.40485225 3.18301919 -1.20760682 1.58714039 0 0 Z " fill="#FFFFFF" transform="translate(19,17)"/>
<path d="M0 0 C2.45724339 4.91448678 1.71335711 11.70318203 0.12890625 16.8046875 C-2.80691118 23.13835265 -6.526613 27.94377049 -12.95776367 30.89990234 C-21.22131981 33.6985396 -29.52495777 33.33446977 -38.125 33.1875 C-39.66925773 33.17242062 -41.21352976 33.15873799 -42.7578125 33.14648438 C-46.50551015 33.11374857 -50.25266109 33.06214757 -54 33 C-52.83795078 29.51385234 -52.21087307 29.21409416 -49.1875 27.35546875 C-47.96256836 26.5972583 -47.96256836 26.5972583 -46.71289062 25.82373047 C-45.81763672 25.28377441 -44.92238281 24.74381836 -44 24.1875 C-43.07896484 23.62434082 -42.15792969 23.06118164 -41.20898438 22.48095703 C-30.80942388 16.1798224 -20.18264381 10.27800074 -9.52929688 4.41943359 C-7.76180017 3.4275199 -6.01957913 2.38980675 -4.29882812 1.31884766 C-2 0 -2 0 0 0 Z " fill="#FFFFFF" transform="translate(132,51)"/>
<path d="M0 0 C3.15781061 0.65443831 5.67228002 1.76114663 8.5 3.30078125 C9.37769043 3.77765381 10.25538086 4.25452637 11.15966797 4.74584961 C12.09697754 5.26284424 13.03428711 5.77983887 14 6.3125 C15.4543042 7.11022827 15.4543042 7.11022827 16.93798828 7.92407227 C26.03214509 12.94955736 34.9768145 18.21825332 43.82324219 23.66748047 C45.30959168 24.57736108 46.80559714 25.47160644 48.30957031 26.35205078 C49.03499023 26.78372559 49.76041016 27.21540039 50.5078125 27.66015625 C51.15637207 28.03922119 51.80493164 28.41828613 52.47314453 28.80883789 C54 30 54 30 55 33 C50.32270714 33.07476614 45.64577049 33.12888954 40.96801758 33.16479492 C39.38039074 33.17978013 37.79280457 33.20017546 36.20532227 33.22631836 C24.47395562 33.4145221 14.61360173 33.48975975 5.73046875 24.92578125 C-0.99660922 17.4394394 -0.44814738 9.56047748 0 0 Z " fill="#FFFFFF" transform="translate(0,51)"/>
<path d="M0 0 C3.3 0 6.6 0 10 0 C10 17.16 10 34.32 10 52 C6.37 52 2.74 52 -1 52 C-1.02464113 44.75512951 -1.0428318 37.51028318 -1.05493164 30.26538086 C-1.05997356 27.79857967 -1.06680691 25.33178148 -1.07543945 22.86499023 C-1.08751125 19.32795471 -1.09322956 15.79095855 -1.09765625 12.25390625 C-1.10281754 11.14350479 -1.10797882 10.03310333 -1.11329651 8.88905334 C-1.11337204 7.86807053 -1.11344757 6.84708771 -1.11352539 5.79516602 C-1.115746 4.89137711 -1.11796661 3.9875882 -1.12025452 3.05641174 C-1 1 -1 1 0 0 Z " fill="#FFFFFF" transform="translate(447,32)"/>
<path d="M0 0 C3.89199822 -0.02514961 7.7839635 -0.04306705 11.67602539 -0.05493164 C13.63364327 -0.06229736 15.59123871 -0.07501826 17.54882812 -0.08789062 C25.74950314 -0.10875748 33.83492363 0.23303794 42 1 C40.53864995 4.93303613 39.24760453 7.05162271 36 9.75 C34.948125 10.63945313 34.948125 10.63945313 33.875 11.546875 C30.26322523 14.34600044 27.32981128 14.45532591 22.8515625 14.41015625 C17.56631205 13.64994899 13.43172321 10.83887197 9 8 C8.11054687 7.45085937 7.22109375 6.90171875 6.3046875 6.3359375 C1.76598837 3.44767442 1.76598837 3.44767442 0 2 C0 1.34 0 0.68 0 0 Z " fill="#FFFFFF" transform="translate(79,86)"/>
<path d="M0 0 C-1.35987509 3.23700066 -2.63131006 4.73117508 -5.625 6.54296875 C-6.33140625 6.97673828 -7.0378125 7.41050781 -7.765625 7.85742188 C-8.50296875 8.29634766 -9.2403125 8.73527344 -10 9.1875 C-11.10601562 9.86329102 -11.10601562 9.86329102 -12.234375 10.55273438 C-18.48681049 14.35782057 -22.52471777 15.80751506 -30 15 C-35.03149474 12.58101215 -38.82662552 8.56875901 -42 4 C-42 3.34 -42 2.68 -42 2 C-33.32044574 1.07976626 -24.65899044 0.70497658 -15.9375 0.4375 C-14.62072266 0.39431641 -13.30394531 0.35113281 -11.94726562 0.30664062 C-2.49007937 0 -2.49007937 0 0 0 Z " fill="#FFFFFF" transform="translate(54,85)"/>
</svg>
