<?xml version="1.0" encoding="UTF-8"?>
<svg version="1.1" xmlns="http://www.w3.org/2000/svg" width="112" height="100">
<path d="M0 0 C2.6328125 0.5703125 2.6328125 0.5703125 4.6328125 2.5703125 C5.0078125 5.4453125 5.0078125 5.4453125 4.6328125 8.5703125 C2.609375 10.765625 2.609375 10.765625 0.6328125 12.5703125 C1.57162262 12.57617874 2.51043274 12.58204498 3.47769165 12.58808899 C12.33510837 12.64535951 21.1922806 12.71814372 30.04944801 12.80602741 C34.60277148 12.85071078 39.15600589 12.88997136 43.70947266 12.91674805 C48.10573919 12.94280135 52.50166267 12.98321803 56.89771652 13.03349876 C58.5729482 13.05015379 60.24823921 13.06167656 61.92354202 13.06792641 C64.2744244 13.07758253 66.62443182 13.10565859 68.97509766 13.13793945 C69.66418213 13.13650436 70.3532666 13.13506927 71.06323242 13.1335907 C75.62674203 13.22192768 78.75011193 14.18764834 82.6328125 16.5703125 C86.95221048 21.40563359 87.1823964 25.30727042 87.0234375 31.46875 C87.01777771 32.30371002 87.01211792 33.13867004 87.00628662 33.99893188 C86.98401473 36.64832516 86.93383773 39.29633266 86.8828125 41.9453125 C86.86273552 43.74867829 86.84448685 45.55206542 86.828125 47.35546875 C86.78418036 51.76094519 86.71521851 56.16539444 86.6328125 60.5703125 C84.61135829 59.56918382 82.61848254 58.56211179 80.66015625 57.44140625 C76.99696418 55.86743355 73.39511112 56.51069898 69.6328125 57.5703125 C66.92728862 59.76855065 65.18502917 61.46587917 63.6328125 64.5703125 C63.32107204 70.79152291 63.32107204 70.79152291 65.6328125 76.5703125 C68.9328125 76.5703125 72.2328125 76.5703125 75.6328125 76.5703125 C74.8078125 75.8690625 73.9828125 75.1678125 73.1328125 74.4453125 C70.6328125 71.5703125 70.6328125 71.5703125 70.1953125 68.3828125 C70.6328125 65.5703125 70.6328125 65.5703125 72.6328125 63.5703125 C77.18902461 63.53132291 79.84429733 64.40009614 83.125 67.44140625 C84.26836002 68.61506268 85.39579696 69.80441606 86.5078125 71.0078125 C87.08789062 71.60658203 87.66796875 72.20535156 88.265625 72.82226562 C93.35540174 78.13204439 93.35540174 78.13204439 94.140625 82.203125 C93.35962744 87.38173957 90.17627548 89.90050558 86.5078125 93.4453125 C85.84265625 94.13367188 85.1775 94.82203125 84.4921875 95.53125 C79.55040168 100.41489716 79.55040168 100.41489716 75.265625 101.140625 C72.6328125 100.5703125 72.6328125 100.5703125 70.6328125 98.5703125 C70.2578125 95.6953125 70.2578125 95.6953125 70.6328125 92.5703125 C72.65625 90.375 72.65625 90.375 74.6328125 88.5703125 C73.69400238 88.56444626 72.75519226 88.55858002 71.78793335 88.55253601 C62.93051663 88.49526549 54.0733444 88.42248128 45.21617699 88.33459759 C40.66285352 88.28991422 36.10961911 88.25065364 31.55615234 88.22387695 C27.15988581 88.19782365 22.76396233 88.15740697 18.36790848 88.10712624 C16.6926768 88.09047121 15.01738579 88.07894844 13.34208298 88.07269859 C10.9912006 88.06304247 8.64119318 88.03496641 6.29052734 88.00268555 C5.60144287 88.00412064 4.9123584 88.00555573 4.20239258 88.0070343 C-0.36111703 87.91869732 -3.48448693 86.95297666 -7.3671875 84.5703125 C-11.68658548 79.73499141 -11.9167714 75.83335458 -11.7578125 69.671875 C-11.75215271 68.83691498 -11.74649292 68.00195496 -11.74066162 67.14169312 C-11.71838973 64.49229984 -11.66821273 61.84429234 -11.6171875 59.1953125 C-11.59711052 57.39194671 -11.57886185 55.58855958 -11.5625 53.78515625 C-11.51855536 49.37967981 -11.44959351 44.97523056 -11.3671875 40.5703125 C-9.34573329 41.57144118 -7.35285754 42.57851321 -5.39453125 43.69921875 C-1.73133918 45.27319145 1.87051388 44.62992602 5.6328125 43.5703125 C8.33833638 41.37207435 10.08059583 39.67474583 11.6328125 36.5703125 C11.94455296 30.34910209 11.94455296 30.34910209 9.6328125 24.5703125 C6.3328125 24.5703125 3.0328125 24.5703125 -0.3671875 24.5703125 C0.4578125 25.2715625 1.2828125 25.9728125 2.1328125 26.6953125 C4.6328125 29.5703125 4.6328125 29.5703125 5.0703125 32.7578125 C4.6328125 35.5703125 4.6328125 35.5703125 2.6328125 37.5703125 C-1.92339961 37.60930209 -4.57867233 36.74052886 -7.859375 33.69921875 C-9.00273502 32.52556232 -10.13017196 31.33620894 -11.2421875 30.1328125 C-11.82226562 29.53404297 -12.40234375 28.93527344 -13 28.31835938 C-18.08977674 23.00858061 -18.08977674 23.00858061 -18.875 18.9375 C-18.09400244 13.75888543 -14.91065048 11.24011942 -11.2421875 7.6953125 C-10.57703125 7.00695312 -9.911875 6.31859375 -9.2265625 5.609375 C-4.28477668 0.72572784 -4.28477668 0.72572784 0 0 Z M62.6328125 26.5703125 C62.769592 29.51107172 62.96303147 31.76781944 64.89453125 34.08203125 C68.05031034 36.85625518 69.34251285 37.5703125 73.6328125 37.5703125 C73.65969401 35.92456684 73.67915373 34.27869837 73.6953125 32.6328125 C73.70691406 31.71628906 73.71851562 30.79976562 73.73046875 29.85546875 C73.89230299 27.60437923 73.89230299 27.60437923 72.6328125 26.5703125 C70.94672284 26.49825739 69.25780591 26.48645182 67.5703125 26.5078125 C66.65121094 26.51683594 65.73210937 26.52585937 64.78515625 26.53515625 C64.07488281 26.54675781 63.36460938 26.55835937 62.6328125 26.5703125 Z M25.8515625 37.1171875 C22.24852006 41.10879334 19.68374161 44.95434596 19.60546875 50.51171875 C20.06040318 56.65916601 22.52803843 60.57631601 27.0078125 64.8203125 C31.88488499 68.07169416 35.95399072 69.04908859 41.6796875 68.109375 C47.01762398 66.63610453 50.63608314 63.06540653 53.6328125 58.5703125 C55.89417287 53.72454029 56.03640189 49.65578129 54.6328125 44.5703125 C51.70819449 39.13887905 48.30300605 35.66018742 42.5703125 33.3203125 C36.41163559 31.74788435 30.66768983 32.93476113 25.8515625 37.1171875 Z M1.6328125 63.5703125 C1.60593099 65.21605816 1.58647127 66.86192663 1.5703125 68.5078125 C1.55871094 69.42433594 1.54710938 70.34085937 1.53515625 71.28515625 C1.37332201 73.53624577 1.37332201 73.53624577 2.6328125 74.5703125 C4.31890216 74.64236761 6.00781909 74.65417318 7.6953125 74.6328125 C8.61441406 74.62378906 9.53351562 74.61476563 10.48046875 74.60546875 C11.19074219 74.59386719 11.90101562 74.58226563 12.6328125 74.5703125 C12.496033 71.62955328 12.30259353 69.37280556 10.37109375 67.05859375 C7.21531466 64.28436982 5.92311215 63.5703125 1.6328125 63.5703125 Z " fill="#FFFFFF" transform="translate(18.3671875,-0.5703125)"/>
</svg>
