<?xml version="1.0" encoding="UTF-8"?>
<svg version="1.1" xmlns="http://www.w3.org/2000/svg" width="436" height="100">
<path d="M0 0 C0.73863281 0.32871094 1.47726563 0.65742187 2.23828125 0.99609375 C15.6950504 7.71285763 24.27973863 18.9844547 29 33 C32.6229942 45.7170085 30.59906042 60.48490794 24.421875 71.921875 C17.12347787 84.08587021 7.26415591 92.08127168 -6.390625 96.30859375 C-17.09411113 98.35893687 -29.96769516 98.6534324 -40 94 C-40.88558594 93.60941406 -41.77117188 93.21882813 -42.68359375 92.81640625 C-56.36543234 86.11780844 -63.26035496 75.57733265 -69 62 C-72.05219081 51.8711052 -71.64024274 36.87209741 -67.25390625 27.3046875 C-66.63322266 26.16386719 -66.63322266 26.16386719 -66 25 C-65.36384766 23.73542969 -65.36384766 23.73542969 -64.71484375 22.4453125 C-57.74342281 9.66761061 -46.52630093 1.40678845 -32.62109375 -2.703125 C-22.04431533 -3.90109096 -9.81880419 -4.55017755 0 0 Z M-6 10 C-7.85919576 16.04824938 -9.70970794 22.09910569 -11.55419922 28.15185547 C-12.1827335 30.21073519 -12.81325519 32.26900928 -13.44580078 34.32666016 C-14.35451722 37.2839116 -15.25607064 40.24326539 -16.15625 43.203125 C-16.44060913 44.12305237 -16.72496826 45.04297974 -17.01794434 45.99078369 C-17.27821411 46.8513739 -17.53848389 47.71196411 -17.80664062 48.59863281 C-18.15305603 49.73114471 -18.15305603 49.73114471 -18.50646973 50.88653564 C-19.15159961 53.28748048 -19.15159961 53.28748048 -19 57 C-19.66 57 -20.32 57 -21 57 C-21.21398438 55.73414063 -21.42796875 54.46828125 -21.6484375 53.1640625 C-23.33461295 44.73318527 -26.07447991 36.57493819 -28.625 28.375 C-29.14628431 26.68633707 -29.66712143 24.99753602 -30.1875 23.30859375 C-31.45318085 19.20411793 -32.72490661 15.10156101 -34 11 C-34.66 11 -35.32 11 -36 11 C-38.35018613 18.65710204 -40.69737843 26.3151125 -43.04072571 33.97430992 C-44.12886182 37.53052922 -45.21803695 41.08642339 -46.30957031 44.64160156 C-47.36239153 48.0708275 -48.41250466 51.50087179 -49.46072388 54.93150711 C-49.86165487 56.24196681 -50.26357036 57.55212571 -50.66647339 58.86198044 C-51.22945213 60.69283878 -51.78864687 62.5248594 -52.34765625 64.35693359 C-52.82730835 65.92246475 -52.82730835 65.92246475 -53.31665039 67.5196228 C-54.08853555 69.89256251 -54.08853555 69.89256251 -54 72 C-52.68 72 -51.36 72 -50 72 C-49.70867188 70.99839844 -49.41734375 69.99679688 -49.1171875 68.96484375 C-44.59859991 54.06005337 -44.59859991 54.06005337 -39 50 C-35.21076763 48.50009552 -33.7461333 48.68911112 -30 50.25 C-25.52207459 53.56698179 -23.37605657 59.11307514 -21 64 C-20.34 64 -19.68 64 -19 64 C-18.52820312 62.98679687 -18.52820312 62.98679687 -18.046875 61.953125 C-13.47368421 52.42105263 -13.47368421 52.42105263 -10 50 C-6.60931367 48.91786606 -4.79058439 48.71076181 -1.4375 49.9375 C5.30340273 55.64134077 7.5484394 63.78247845 10 72 C11.32 71.67 12.64 71.34 14 71 C11.69678343 63.19150719 9.38523232 55.38555256 7.06289864 47.58272648 C5.98489379 43.95976251 4.90981713 40.33598219 3.84130859 36.71020508 C2.81068004 33.21335713 1.77252247 29.71882775 0.72903061 26.22579765 C0.33159372 24.89051066 -0.06308982 23.55440107 -0.45501328 22.21748543 C-1.00298873 20.34996864 -1.56153696 18.48556386 -2.12060547 16.62133789 C-2.43593231 15.55766495 -2.75125916 14.493992 -3.07614136 13.39808655 C-3.75087875 10.8437847 -3.75087875 10.8437847 -6 10 Z " fill="#FEFEFE" transform="translate(70,3)"/>
<path d="M0 0 C0.804375 -0.639375 1.60875 -1.27875 2.4375 -1.9375 C6.98379887 -4.93270867 11.85665374 -5.63655578 17.1796875 -4.55859375 C21.82328437 -3.02533063 24.95631059 -0.91331496 28 3 C31.76548248 10.50381003 31.3452792 17.73884298 31.1875 26 C31.17242476 27.36066226 31.15874138 28.72134069 31.14648438 30.08203125 C31.11130983 33.38843843 31.06208288 36.69400684 31 40 C27.7 40 24.4 40 21 40 C20.9906543 39.1121582 20.98130859 38.22431641 20.97167969 37.30957031 C20.92759319 34.00654081 20.86595254 30.70479993 20.79248047 27.40234375 C20.76430389 25.97473063 20.74307273 24.54696247 20.72900391 23.11914062 C20.70752608 21.06299668 20.66086026 19.00870998 20.609375 16.953125 C20.58842773 15.71723633 20.56748047 14.48134766 20.54589844 13.20800781 C19.90714788 9.45434847 19.02418327 8.24649688 16 6 C13 5.33333333 13 5.33333333 10 6 C7.15219381 8.23206431 6.15002334 9.54992999 5 13 C4.84970012 15.06362991 4.75155552 17.13123915 4.68359375 19.19921875 C4.62075195 21.01196289 4.62075195 21.01196289 4.55664062 22.86132812 C4.51732422 24.12396484 4.47800781 25.38660156 4.4375 26.6875 C4.37272461 28.59885742 4.37272461 28.59885742 4.30664062 30.54882812 C4.2004514 33.69910852 4.09840467 36.84946839 4 40 C1.03 40 -1.94 40 -5 40 C-5.0093457 39.1121582 -5.01869141 38.22431641 -5.02832031 37.30957031 C-5.07240681 34.00654081 -5.13404746 30.70479993 -5.20751953 27.40234375 C-5.23569611 25.97473063 -5.25692727 24.54696247 -5.27099609 23.11914062 C-5.29247392 21.06299668 -5.33913974 19.00870998 -5.390625 16.953125 C-5.41157227 15.71723633 -5.43251953 14.48134766 -5.45410156 13.20800781 C-6.09268598 9.4553248 -6.97338889 8.24279996 -10 6 C-13.45238782 5.49652678 -15.26782014 5.58443846 -18.3125 7.3125 C-21.50779903 10.50779903 -21.18054636 14.12867802 -21.31640625 18.41796875 C-21.35830078 19.67158203 -21.40019531 20.92519531 -21.44335938 22.21679688 C-21.48267578 23.52712891 -21.52199219 24.83746094 -21.5625 26.1875 C-21.60570992 27.52279978 -21.649325 28.85808652 -21.69335938 30.19335938 C-21.79956502 33.46213297 -21.90160997 36.73098333 -22 40 C-24.97 40 -27.94 40 -31 40 C-31.09965569 35.73167019 -31.17183391 31.46397531 -31.21972656 27.19482422 C-31.23971295 25.74581083 -31.26691197 24.29687675 -31.30175781 22.84814453 C-31.69771838 5.94994487 -31.69771838 5.94994487 -25.25390625 -0.83984375 C-16.36530096 -6.60819961 -8.6964987 -5.61648874 0 0 Z " fill="#FFFFFF" transform="translate(148,32)"/>
<path d="M0 0 C4.60109405 3.42406999 7.23207847 6.82123541 9.0625 12.3125 C9.1458804 14.45044525 9.16983747 16.59092009 9.16015625 18.73046875 C9.15693359 19.98408203 9.15371094 21.23769531 9.15039062 22.52929688 C9.13782227 24.49479492 9.13782227 24.49479492 9.125 26.5 C9.11998317 27.83528481 9.11542059 29.17057141 9.11132812 30.50585938 C9.09952695 33.77478473 9.08306297 37.04361991 9.0625 40.3125 C6.4225 40.3125 3.7825 40.3125 1.0625 40.3125 C0.7325 39.6525 0.4025 38.9925 0.0625 38.3125 C-0.845 38.8075 -1.7525 39.3025 -2.6875 39.8125 C-8.53176709 42.2900899 -15.19374917 42.36250023 -21.27734375 40.65625 C-27.46161126 37.90241111 -32.4703753 32.6373106 -34.9375 26.3125 C-35.67033196 19.39320292 -36.04750761 12.11025105 -32.33203125 5.9921875 C-24.16549442 -3.84425742 -11.08309377 -6.95660416 0 0 Z M-25.3125 13.125 C-26.76717873 18.21637555 -26.60171268 21.95852799 -24.3125 26.625 C-20.74385297 30.66320586 -17.76670294 32.08384963 -12.4375 32.75 C-7.27528768 32.10472346 -4.35998424 30.01948109 -1.0625 26.0625 C0.44907876 22.3675297 0.64683082 19.25072962 0.0625 15.3125 C-1.71503468 11.19610391 -4.04787788 8.54696377 -7.9375 6.3125 C-15.98231837 4.85958966 -20.39723911 6.64579246 -25.3125 13.125 Z " fill="#FFFFFF" transform="translate(426.9375,29.6875)"/>
<path d="M0 0 C5.13086452 4.84436955 7.04184705 9.85927557 7.375 16.8125 C7.21667268 23.00589223 5.54660397 28.18183873 1.3515625 32.82421875 C-4.90167992 38.46305962 -10.44773366 39.46295058 -18.76953125 39.3125 C-24.93633024 38.71595354 -28.48980891 36.51019109 -32.8125 32.1875 C-37.34819902 25.57833857 -39.06660194 19.92679167 -38 12 C-36.18269316 5.27163775 -32.76354231 0.85500089 -27 -3 C-17.73572958 -8.0468216 -8.00299903 -6.50025249 0 0 Z M-27 10 C-29.17106614 14.28158461 -29.24608672 17.13145864 -27.9375 21.75 C-25.58019796 25.70418407 -23.09771565 27.95114217 -19 30 C-13.98646089 30.37838031 -10.99517885 30.13135639 -7 27 C-3.29538114 23.03317965 -3.29538114 23.03317965 -1.98046875 18.01171875 C-2.43904222 12.86358266 -3.08237158 9.69376394 -7 6 C-14.44920392 1.62086548 -21.83448063 3.14659262 -27 10 Z " fill="#FFFFFF" transform="translate(221,33)"/>
<path d="M0 0 C4.97053412 4.26045782 8.55699918 8.49626626 9.38671875 15.05859375 C9.61416288 21.842703 9.26329407 27.52752604 5 33 C0.72189935 37.53154264 -3.50460513 40.58537385 -9.83203125 41.3359375 C-18.29004149 41.44678953 -23.36074676 40.07314718 -29.8125 34.625 C-34.57562789 28.90924653 -36.16686036 23.36410375 -36 16 C-34.90184597 9.45372256 -31.9361867 4.40902113 -27 0 C-18.61392559 -5.13433127 -8.39313918 -5.46529993 0 0 Z M-25 12 C-26.73704155 15.4740831 -26.46041616 19.20156669 -26 23 C-23.80613412 27.38773175 -21.55479418 30.09334197 -17 32 C-12.02616592 32.64475627 -8.6594658 31.91814102 -4.51171875 29.26171875 C-0.95214203 26.29080588 -0.11870872 22.94966977 0.4375 18.5 C-0.20555373 13.35557016 -2.29400893 10.46227806 -6.1875 7.125 C-14.03789589 3.98484164 -19.53675575 5.72377297 -25 12 Z " fill="#FFFFFF" transform="translate(364,30)"/>
<path d="M0 0 C5.38540894 4.04867351 8.41521484 8.5941223 9.80859375 15.171875 C10.51794741 21.15227203 9.62400636 26.58109914 6.36328125 31.6796875 C2.10377577 37.02645414 -2.85360598 40.82806568 -9.76953125 41.6484375 C-17.44082885 41.74897875 -22.9802899 41.04005058 -28.6875 35.6640625 C-34.45041157 29.31931851 -35.33460051 23.8777101 -35.19140625 15.41015625 C-34.88783132 11.70654206 -34.06941192 9.35808845 -31.9375 6.3125 C-31.380625 5.44625 -30.82375 4.58 -30.25 3.6875 C-22.26803774 -4.51019097 -9.70029299 -6.13495351 0 0 Z M-24.8125 12.5625 C-26.30614601 16.21363469 -26.60937475 19.46243118 -25.9375 23.3125 C-23.53730377 28.20520769 -21.07472479 30.49936184 -15.9375 32.3125 C-11.65390386 32.84794952 -9.53521664 32.62285287 -5.6875 30.625 C-2.39203988 27.85381763 -0.29648992 25.76559777 0.34375 21.390625 C0.54756737 16.8726734 -0.02522526 13.92773761 -2.9375 10.3125 C-5.89657163 7.09233381 -8.09160683 6.02127042 -12.375 5.8125 C-17.94765738 6.08139694 -21.26001673 8.29952008 -24.8125 12.5625 Z " fill="#FFFFFF" transform="translate(289.9375,29.6875)"/>
<path d="M0 0 C2.97 0 5.94 0 9 0 C9 3.63 9 7.26 9 11 C12.3 11 15.6 11 19 11 C19 13.97 19 16.94 19 20 C15.7 20 12.4 20 9 20 C9.05997446 23.41854428 9.1469887 26.83271199 9.25 30.25 C9.26417969 31.21808594 9.27835938 32.18617187 9.29296875 33.18359375 C9.41300493 38.75667405 9.41300493 38.75667405 11.84375 43.625 C14.53849183 45.34338609 16.8414598 45.71285998 20 46 C20 48.97 20 51.94 20 55 C13.56397574 55.39006208 10.08865972 55.37861417 5 51 C1.60766244 47.14923845 -0.12813441 44.84704238 -0.11352539 39.73388672 C-0.11344986 38.85312469 -0.11337433 37.97236267 -0.11329651 37.06491089 C-0.10813522 36.11278717 -0.10297394 35.16066345 -0.09765625 34.1796875 C-0.0962413 33.20589142 -0.09482635 32.23209534 -0.09336853 31.22879028 C-0.08775973 28.11082927 -0.07520573 24.9929394 -0.0625 21.875 C-0.05748613 19.76432395 -0.05292303 17.65364678 -0.04882812 15.54296875 C-0.03778744 10.36195165 -0.02051689 5.1809879 0 0 Z " fill="#FFFFFF" transform="translate(233,17)"/>
<path d="M0 0 C2.97 0 5.94 0 9 0 C9 18.48 9 36.96 9 56 C6.03 56 3.06 56 0 56 C0 37.52 0 19.04 0 0 Z " fill="#FFFFFF" transform="translate(378,15)"/>
<path d="M0 0 C0 3.3 0 6.6 0 10 C-1.258125 10.103125 -2.51625 10.20625 -3.8125 10.3125 C-6.44935727 10.64327185 -7.74549547 10.81938388 -9.9375 12.375 C-12.24900137 15.91023738 -12.18647805 19.31594993 -12.31640625 23.41796875 C-12.35830078 24.67158203 -12.40019531 25.92519531 -12.44335938 27.21679688 C-12.48267578 28.52712891 -12.52199219 29.83746094 -12.5625 31.1875 C-12.60570992 32.52279978 -12.649325 33.85808652 -12.69335938 35.19335938 C-12.79956502 38.46213297 -12.90160997 41.73098333 -13 45 C-15.97 45 -18.94 45 -22 45 C-22.09965569 40.73167019 -22.17183391 36.46397531 -22.21972656 32.19482422 C-22.23971295 30.74581083 -22.26691197 29.29687675 -22.30175781 27.84814453 C-22.65276566 12.86836836 -22.65276566 12.86836836 -18 6 C-12.7040609 0.7040609 -7.31675944 -0.29267038 0 0 Z " fill="#FFFFFF" transform="translate(326,26)"/>
</svg>
