<?xml version="1.0" encoding="UTF-8"?>
<svg version="1.1" xmlns="http://www.w3.org/2000/svg" width="504" height="140">
<path d="M0 0 C0.8491246 0.32632416 1.69824921 0.65264832 2.57310486 0.98886108 C4.34589052 1.67113319 6.11798614 2.35520082 7.8894043 3.04101562 C10.61256428 4.0947291 13.33832687 5.14148792 16.06445312 6.1875 C17.79312537 6.85376045 19.52164669 7.52041263 21.25 8.1875 C22.47481834 8.65780136 22.47481834 8.65780136 23.72438049 9.13760376 C29.41192958 11.34552333 29.41192958 11.34552333 30.52734375 12.4609375 C30.31070215 22.91368057 29.19756555 33.4189146 28.07250977 43.80981445 C27.91581789 45.30060694 27.76986292 46.79256253 27.6340332 48.28540039 C26.25241102 63.39168123 26.25241102 63.39168123 21.00561523 68.27905273 C20.51778564 68.66907471 20.02995605 69.05909668 19.52734375 69.4609375 C18.89570312 70.06421875 18.2640625 70.6675 17.61328125 71.2890625 C17.04867187 71.75828125 16.4840625 72.2275 15.90234375 72.7109375 C12.36937661 75.71599001 8.93535221 78.81569729 5.52734375 81.9609375 C1.55682683 85.61657903 -2.43496798 89.23914234 -6.53125 92.75390625 C-7.99007341 94.03661416 -9.41436089 95.35876905 -10.8203125 96.69921875 C-11.61308594 97.44558594 -12.40585938 98.19195312 -13.22265625 98.9609375 C-13.939375 99.651875 -14.65609375 100.3428125 -15.39453125 101.0546875 C-17.47265625 102.4609375 -17.47265625 102.4609375 -19.53515625 102.375 C-21.78088105 101.31552499 -23.0390968 100.15843147 -24.72265625 98.3359375 C-27.09715343 95.85624108 -29.49272369 93.51016229 -32.09765625 91.2734375 C-35.79980795 88.08267252 -39.39088471 84.78511237 -42.97265625 81.4609375 C-50.9752487 73.58468918 -50.9752487 73.58468918 -59.97143555 67.02319336 C-63.74226969 63.16034277 -63.71758263 59.19323501 -64.2734375 53.96484375 C-64.39953903 52.9391478 -64.52564056 51.91345184 -64.65556335 50.85667419 C-65.0528617 47.58102194 -65.41897728 44.30269884 -65.78515625 41.0234375 C-66.0494694 38.81942517 -66.31572363 36.6156447 -66.58398438 34.41210938 C-67.06785084 30.36918192 -67.54764726 26.32598897 -68.0012207 22.27954102 C-68.09272903 21.46775894 -68.18423737 20.65597687 -68.27851868 19.81959534 C-68.48127727 17.35619719 -68.50576257 14.93153338 -68.47265625 12.4609375 C-65.27424704 11.08243659 -62.06268712 9.73766107 -58.84765625 8.3984375 C-57.94402344 8.00849609 -57.04039063 7.61855469 -56.109375 7.21679688 C-47.54481215 3.68469614 -47.54481215 3.68469614 -42.47265625 5.4609375 C-38.88959597 6.98724111 -35.40047816 8.67180639 -31.91015625 10.3984375 C-29.86603936 11.39354545 -27.82176465 12.38832928 -25.77734375 13.3828125 C-24.73803711 13.89134766 -23.69873047 14.39988281 -22.62792969 14.92382812 C-17.6134617 17.36665469 -12.57420382 19.7568404 -7.53515625 22.1484375 C-5.77596012 22.98550572 -4.01683753 23.82272853 -2.2578125 24.66015625 C-0.99610796 25.26044653 0.2656048 25.86071955 1.52734375 26.4609375 C1.52734375 27.1209375 1.52734375 27.7809375 1.52734375 28.4609375 C-1.31143235 30.01185446 -4.17056671 31.52081181 -7.03515625 33.0234375 C-7.83501953 33.46107422 -8.63488281 33.89871094 -9.45898438 34.34960938 C-14.58525751 37.00690198 -17.73595779 38.25973278 -23.47265625 36.4609375 C-27.7066839 34.60264717 -31.80749097 32.52890166 -35.91015625 30.3984375 C-37.02326172 29.83060547 -38.13636719 29.26277344 -39.28320312 28.67773438 C-42.0177826 27.28110366 -44.74723461 25.87533242 -47.47265625 24.4609375 C-40.01082717 29.4877068 -40.01082717 29.4877068 -31.93359375 33.3828125 C-27.34883816 35.32853276 -23.33427469 37.242945 -20.47265625 41.4609375 C-18.39271101 49.29184794 -18.99009504 57.49400874 -19.39111328 65.51318359 C-19.48705271 68.98136529 -19.14352622 72.0668324 -18.47265625 75.4609375 C-18.4476001 74.71521484 -18.42254395 73.96949219 -18.39672852 73.20117188 C-18.27992407 69.78762154 -18.1575838 66.3742906 -18.03515625 62.9609375 C-17.99583984 61.78789063 -17.95652344 60.61484375 -17.91601562 59.40625 C-17.83241138 57.11678002 -17.73478409 54.82777237 -17.62207031 52.53955078 C-17.53257385 50.69551411 -17.4685263 48.849583 -17.45605469 47.00341797 C-17.33793102 44.23659831 -17.0785092 42.10034504 -15.12817383 40.04199219 C-13.34528413 38.72766779 -11.54047024 37.64847449 -9.59765625 36.5859375 C-8.95957031 36.20953125 -8.32148437 35.833125 -7.6640625 35.4453125 C-5.94398601 34.43265786 -4.2089538 33.44552035 -2.47265625 32.4609375 C-1.48265625 31.8009375 -0.49265625 31.1409375 0.52734375 30.4609375 C1.51734375 30.4609375 2.50734375 30.4609375 3.52734375 30.4609375 C3.19734375 39.3709375 2.86734375 48.2809375 2.52734375 57.4609375 C11.71607195 52.75337423 11.71607195 52.75337423 12.80859375 46.81640625 C12.9244214 45.0961024 12.99644448 43.37235937 13.02734375 41.6484375 C13.12081072 39.9335783 13.214559 38.21873441 13.30859375 36.50390625 C13.32986328 35.75133545 13.35113281 34.99876465 13.37304688 34.22338867 C13.59307988 30.28403193 14.06581292 26.37837729 14.52734375 22.4609375 C13.35751953 21.93661133 12.18769531 21.41228516 10.98242188 20.87207031 C6.61315839 18.91318044 2.24490975 16.95203635 -2.12304688 14.99023438 C-4.00819038 14.14392252 -5.89360298 13.29820981 -7.77929688 12.453125 C-10.50072267 11.2333739 -13.22115076 10.01142097 -15.94140625 8.7890625 C-16.77506714 8.41597961 -17.60872803 8.04289673 -18.46765137 7.6585083 C-23.53494081 5.37841937 -28.51852093 2.97779741 -33.47265625 0.4609375 C-30.96200335 -2.17427422 -28.80869986 -3.53508509 -25.41015625 -4.9140625 C-24.09337891 -5.48253906 -24.09337891 -5.48253906 -22.75 -6.0625 C-15.23596964 -7.1551242 -6.95067684 -2.6945529 0 0 Z " fill="#D7D7D7" transform="translate(83.47265625,20.5390625)"/>
<path d="M0 0 C0.8491246 0.32632416 1.69824921 0.65264832 2.57310486 0.98886108 C4.34589052 1.67113319 6.11798614 2.35520082 7.8894043 3.04101562 C10.61256428 4.0947291 13.33832687 5.14148792 16.06445312 6.1875 C17.79312537 6.85376045 19.52164669 7.52041263 21.25 8.1875 C22.47481834 8.65780136 22.47481834 8.65780136 23.72438049 9.13760376 C29.41192958 11.34552333 29.41192958 11.34552333 30.52734375 12.4609375 C30.31070215 22.91368057 29.19756555 33.4189146 28.07250977 43.80981445 C27.91581789 45.30060694 27.76986292 46.79256253 27.6340332 48.28540039 C26.25241102 63.39168123 26.25241102 63.39168123 21.00561523 68.27905273 C20.51778564 68.66907471 20.02995605 69.05909668 19.52734375 69.4609375 C18.89570312 70.06421875 18.2640625 70.6675 17.61328125 71.2890625 C17.04867187 71.75828125 16.4840625 72.2275 15.90234375 72.7109375 C12.36937661 75.71599001 8.93535221 78.81569729 5.52734375 81.9609375 C1.55834974 85.6151769 -2.44017009 89.22693687 -6.51953125 92.7578125 C-9.60974671 95.45248038 -12.64595604 98.20764246 -15.6875 100.95703125 C-17.47265625 102.4609375 -17.47265625 102.4609375 -18.47265625 102.4609375 C-18.57818156 88.72316545 -18.55773711 75.00333245 -18.03515625 61.2734375 C-17.99592041 60.20689941 -17.95668457 59.14036133 -17.91625977 58.04150391 C-17.83399497 56.06178035 -17.73692775 54.08259244 -17.62207031 52.10449219 C-17.52829883 50.44541108 -17.46784954 48.78375744 -17.45605469 47.12207031 C-17.33737244 44.32456019 -17.09776207 42.12372901 -15.12817383 40.03540039 C-13.34425464 38.72719299 -11.53807143 37.64716257 -9.59765625 36.5859375 C-8.95957031 36.20953125 -8.32148437 35.833125 -7.6640625 35.4453125 C-5.94398601 34.43265786 -4.2089538 33.44552035 -2.47265625 32.4609375 C-1.48265625 31.8009375 -0.49265625 31.1409375 0.52734375 30.4609375 C1.51734375 30.4609375 2.50734375 30.4609375 3.52734375 30.4609375 C3.19734375 39.3709375 2.86734375 48.2809375 2.52734375 57.4609375 C11.71607195 52.75337423 11.71607195 52.75337423 12.80859375 46.81640625 C12.9244214 45.0961024 12.99644448 43.37235937 13.02734375 41.6484375 C13.12081072 39.9335783 13.214559 38.21873441 13.30859375 36.50390625 C13.32986328 35.75133545 13.35113281 34.99876465 13.37304688 34.22338867 C13.59307988 30.28403193 14.06581292 26.37837729 14.52734375 22.4609375 C13.35751953 21.93661133 12.18769531 21.41228516 10.98242188 20.87207031 C6.61315839 18.91318044 2.24490975 16.95203635 -2.12304688 14.99023438 C-4.00819038 14.14392252 -5.89360298 13.29820981 -7.77929688 12.453125 C-10.50072267 11.2333739 -13.22115076 10.01142097 -15.94140625 8.7890625 C-16.77506714 8.41597961 -17.60872803 8.04289673 -18.46765137 7.6585083 C-23.53494081 5.37841937 -28.51852093 2.97779741 -33.47265625 0.4609375 C-30.96200335 -2.17427422 -28.80869986 -3.53508509 -25.41015625 -4.9140625 C-24.53230469 -5.29304687 -23.65445313 -5.67203125 -22.75 -6.0625 C-15.23596964 -7.1551242 -6.95067684 -2.6945529 0 0 Z " fill="#AAAAAA" transform="translate(83.47265625,20.5390625)"/>
<path d="M0 0 C43.04 0 43.04 0 51.875 7.125 C57.82227709 13.74714542 59.7355553 21.26570065 59.375 30.04296875 C58.36543903 38.00377767 55.46762075 43.33125705 49.390625 48.52734375 C41.51474914 53.37898623 34.53987709 53.37970511 25.5 53.1875 C21.375 53.125625 17.25 53.06375 13 53 C13 62.24 13 71.48 13 81 C8.71 81 4.42 81 0 81 C0 54.27 0 27.54 0 0 Z M13 14 C13 22.58 13 31.16 13 40 C18.259375 40.0928125 18.259375 40.0928125 23.625 40.1875 C24.71893066 40.21481201 25.81286133 40.24212402 26.93994141 40.27026367 C32.3735907 40.31661566 36.35228381 40.15806356 41 37 C44.42709511 33.12197132 45.67395498 30.03261509 45.3828125 24.95703125 C44.51554729 20.52335913 42.21802267 17.82763079 38.5625 15.34375 C33.53680912 13.44809467 28.94082144 13.67978064 23.625 13.8125 C20.11875 13.874375 16.6125 13.93625 13 14 Z " fill="#FFFFFF" transform="translate(167,29)"/>
<path d="M0 0 C4.29 0 8.58 0 13 0 C13.33 14.19 13.66 28.38 14 43 C22.47258612 33.78723118 22.47258612 33.78723118 30.7578125 24.42578125 C31.48111988 23.59556994 32.2214037 22.7785963 33 22 C35.86267567 21.92674832 38.700719 21.90761795 41.5625 21.9375 C42.36880859 21.94201172 43.17511719 21.94652344 44.00585938 21.95117188 C46.00393756 21.96299482 48.00197783 21.98093086 50 22 C45.0715351 28.95693095 39.4100974 34.97779604 33.48242188 41.08398438 C32.79083984 41.80521484 32.09925781 42.52644531 31.38671875 43.26953125 C30.75983154 43.91510986 30.13294434 44.56068848 29.48706055 45.22583008 C27.78344995 47.03789829 27.78344995 47.03789829 27 50 C28.67279364 52.38098365 30.37012514 54.54140077 32.25 56.75 C33.35675613 58.08900973 34.46085174 59.43022222 35.5625 60.7734375 C36.13097656 61.4653418 36.69945312 62.15724609 37.28515625 62.87011719 C40.04350082 66.29605654 42.65489068 69.82461456 45.25 73.375 C45.72727539 74.02307617 46.20455078 74.67115234 46.69628906 75.33886719 C50 79.87015984 50 79.87015984 50 81 C44.64775348 81.91694579 39.26398685 82.69030443 34 81 C29.40482675 77.63254479 26.32171781 72.72500111 23.27978516 67.98388672 C21.29643222 64.90934915 19.14086186 61.96634734 17 59 C15.515 59.495 15.515 59.495 14 60 C13.67 66.93 13.34 73.86 13 81 C8.71 81 4.42 81 0 81 C0 54.27 0 27.54 0 0 Z " fill="#FFFFFF" transform="translate(331,29)"/>
<path d="M0 0 C3.98783862 4.20938521 5.12899655 8.65162483 5.09765625 14.32421875 C5.09515869 15.25065186 5.09266113 16.17708496 5.09008789 17.1315918 C5.08098389 18.3050415 5.07187988 19.47849121 5.0625 20.6875 C5.041875 24.420625 5.02125 28.15375 5 32 C-5.89 32 -16.78 32 -28 32 C-26.66393155 38.47558107 -26.66393155 38.47558107 -24.375 40.9375 C-20.23096937 42.79140844 -15.94885714 42.68473359 -11.6875 41.1875 C-9.91760728 39.94201994 -8.51029554 38.5441397 -7 37 C-5.51245994 37.73325207 -4.03513808 38.48726078 -2.5625 39.25 C-1.73878906 39.66765625 -0.91507812 40.0853125 -0.06640625 40.515625 C2 42 2 42 2.78515625 44.171875 C2.85605469 44.77515625 2.92695313 45.3784375 3 46 C-3.65199212 52.45738596 -8.98457844 56.01486499 -18.375 56.4375 C-24.91003535 56.21996762 -30.83927704 54.70264717 -35.88671875 50.38671875 C-42.58278786 43.07454643 -42.33787201 35.08368624 -42.3125 25.625 C-42.32861328 24.43132812 -42.34472656 23.23765625 -42.36132812 22.0078125 C-42.36577957 13.95959383 -41.57413058 8.19487947 -37.3125 1.25 C-27.08420955 -8.70185016 -11.2440229 -7.83737656 0 0 Z M-26 10 C-26.66 10.66 -27.32 11.32 -28 12 C-28 14.64 -28 17.28 -28 20 C-21.4 20 -14.8 20 -8 20 C-7.12381973 12.46607475 -7.12381973 12.46607475 -10.125 9.5625 C-16.26814232 6.2238357 -19.83822957 6.8006192 -26 10 Z " fill="#FFFFFF" transform="translate(420,55)"/>
<path d="M0 0 C4.11734604 3.24870763 6.38386704 6.6530147 7.9140625 11.7109375 C8.29898357 15.00952551 8.26522877 18.26481023 8.20703125 21.58203125 C8.20278641 22.5043605 8.19854156 23.42668976 8.19416809 24.37696838 C8.17747614 27.30109785 8.13984188 30.22451899 8.1015625 33.1484375 C8.08650339 35.13996395 8.07281714 37.13150129 8.06054688 39.12304688 C8.02760372 43.98594688 7.97588749 48.8483224 7.9140625 53.7109375 C6.46812698 54.19799095 5.02175381 54.68374526 3.57519531 55.16894531 C2.76979309 55.43958801 1.96439087 55.71023071 1.13458252 55.98907471 C-7.965431 58.94737327 -20.32080638 59.32955209 -29.25390625 55.69140625 C-34.22055667 53.03334813 -37.3183398 50.18169238 -39.0859375 44.7109375 C-39.73069269 39.62786755 -39.89986835 34.48680646 -37.5234375 29.8359375 C-34.070982 25.4097125 -30.42551738 22.49079746 -25.0859375 20.7109375 C-22.22145241 20.61441372 -19.38712675 20.57167847 -16.5234375 20.5859375 C-15.74291016 20.58207031 -14.96238281 20.57820313 -14.15820312 20.57421875 C-8.33929248 20.58426001 -8.33929248 20.58426001 -6.0859375 21.7109375 C-6.31424451 20.08274804 -6.56937326 18.4583026 -6.8359375 16.8359375 C-6.97515625 15.93101563 -7.114375 15.02609375 -7.2578125 14.09375 C-7.86810469 11.62104015 -7.86810469 11.62104015 -9.82421875 10.41015625 C-14.16694245 9.06758709 -18.59760071 9.24340242 -23.0859375 9.7109375 C-25.93842523 11.1531283 -25.93842523 11.1531283 -28.0859375 12.7109375 C-31.29471539 12.7109375 -32.37954536 11.46952659 -34.8984375 9.3984375 C-37.0859375 6.7109375 -37.0859375 6.7109375 -36.9453125 4.70703125 C-35.31954107 0.9308076 -31.64057793 -0.53956121 -28.0859375 -2.2890625 C-18.84218585 -5.76214838 -8.48735271 -5.24499325 0 0 Z M-24.5234375 34.3984375 C-26.40224645 36.73835282 -26.40224645 36.73835282 -26.2109375 40.2734375 C-25.40024429 43.85623518 -25.40024429 43.85623518 -22.5234375 45.6484375 C-16.73080649 47.43888709 -12.06698541 46.90714708 -6.0859375 45.7109375 C-6.0859375 41.4209375 -6.0859375 37.1309375 -6.0859375 32.7109375 C-13.49777055 30.90805919 -17.97430858 29.86442517 -24.5234375 34.3984375 Z " fill="#FFFFFF" transform="translate(266.0859375,53.2890625)"/>
<path d="M0 0 C3.30593274 3.16507846 5.83971073 6.29261435 6.12025452 11.03117371 C6.11803391 11.80616714 6.11581329 12.58116058 6.11352539 13.37963867 C6.11344986 14.26032516 6.11337433 15.14101166 6.11329651 16.04838562 C6.10813522 16.99534805 6.10297394 17.94231049 6.09765625 18.91796875 C6.0962413 19.89034988 6.09482635 20.86273102 6.09336853 21.86457825 C6.08776817 24.97225004 6.07521562 28.07984996 6.0625 31.1875 C6.05748505 33.29361875 6.05292213 35.39973863 6.04882812 37.50585938 C6.03779862 42.67060064 6.02053375 47.83528813 6 53 C4.73037983 53.48852845 3.45955423 53.97392487 2.18823242 54.45800781 C1.48067307 54.72865051 0.77311371 54.99929321 0.04411316 55.27813721 C-8.97421467 58.46289011 -22.34157016 58.56916259 -31.234375 54.98828125 C-35.18801455 52.77529274 -37.5319858 49.7020213 -40 46 C-41.32894043 39.46604288 -41.41386287 33.84373068 -37.7734375 28.046875 C-34.13609888 23.41753494 -29.93843645 20.49069513 -23.98364258 19.7487793 C-21.89711964 19.67095162 -19.83686771 19.68770544 -17.75 19.75 C-16.69039063 19.75773437 -16.69039063 19.75773437 -15.609375 19.765625 C-12.49010419 19.81288668 -9.97694713 20.00768429 -7 21 C-7.23667109 15.35112152 -7.23667109 15.35112152 -9.8125 10.5 C-14.70875346 8.19588072 -19.68197726 8.2150259 -25 9 C-26.69198048 9.95654578 -28.36467404 10.9495302 -30 12 C-34.18912362 11.08362921 -36.48284084 7.21637003 -39 4 C-28.56321779 -5.56454392 -12.27617706 -9.22889906 0 0 Z M-24 32 C-26.57714488 34.32774377 -26.9448886 35.61422017 -27.4375 39.0625 C-27.28707329 42.07254336 -27.28707329 42.07254336 -25.1875 43.8125 C-19.21163242 47.0565424 -13.42179577 46.28435915 -7 45 C-7 40.71 -7 36.42 -7 32 C-15.57719887 29.83303513 -15.57719887 29.83303513 -24 32 Z " fill="#FFFFFF" transform="translate(498,54)"/>
<path d="M0 0 C3.26870639 2.54959099 5.85852803 5.68763296 7.7578125 9.37109375 C7.7578125 10.69109375 7.7578125 12.01109375 7.7578125 13.37109375 C6.1345438 14.04196495 4.50913672 14.70766404 2.8828125 15.37109375 C1.97789062 15.74234375 1.07296875 16.11359375 0.140625 16.49609375 C-2.2421875 17.37109375 -2.2421875 17.37109375 -4.2421875 17.37109375 C-4.3865625 16.58734375 -4.5309375 15.80359375 -4.6796875 14.99609375 C-6.51773261 11.90817796 -7.13302317 11.78608755 -10.4921875 10.93359375 C-14.61547014 10.23091214 -17.42930935 10.46465467 -21.2421875 12.37109375 C-23.54723752 14.12099544 -24.17661937 14.95215879 -24.63037109 17.85131836 C-24.63375488 18.81561768 -24.63713867 19.77991699 -24.640625 20.7734375 C-24.64449219 21.82853516 -24.64835937 22.88363281 -24.65234375 23.97070312 C-24.64074219 25.07220703 -24.62914062 26.17371094 -24.6171875 27.30859375 C-24.62878906 28.40623047 -24.64039063 29.50386719 -24.65234375 30.63476562 C-24.64847656 31.69115234 -24.64460938 32.74753906 -24.640625 33.8359375 C-24.63724121 34.80136475 -24.63385742 35.76679199 -24.63037109 36.76147461 C-24.17664373 39.81172103 -23.37468161 41.16939535 -21.2421875 43.37109375 C-16.72266423 44.87760151 -12.88259372 45.11673294 -8.4921875 43.12109375 C-6.25233674 41.3789876 -4.8870324 39.6587516 -3.2421875 37.37109375 C-1.42665772 37.9872373 0.3851778 38.61427603 2.1953125 39.24609375 C3.20464844 39.59414062 4.21398437 39.9421875 5.25390625 40.30078125 C7.7578125 41.37109375 7.7578125 41.37109375 8.7578125 43.37109375 C6.41843061 49.21954849 3.15963866 52.99862166 -2.3046875 56.12109375 C-9.09384116 59.01009531 -16.68712107 59.62578271 -23.8515625 57.65234375 C-30.95067044 54.69835253 -35.23268828 50.49846615 -38.2421875 43.37109375 C-38.63037109 39.84765625 -38.63037109 39.84765625 -38.640625 35.99609375 C-38.64349518 35.30854004 -38.64636536 34.62098633 -38.64932251 33.91259766 C-38.65135291 32.46711396 -38.64589501 31.02160213 -38.63330078 29.57617188 C-38.61723046 27.37697292 -38.63318232 25.17961127 -38.65234375 22.98046875 C-38.65036113 21.5690064 -38.64651707 20.15754519 -38.640625 18.74609375 C-38.63724121 17.47507812 -38.63385742 16.2040625 -38.63037109 14.89453125 C-38.05952881 9.71315022 -36.11104972 5.63198764 -32.1796875 2.18359375 C-23.16975941 -4.97911059 -10.00580301 -5.71461135 0 0 Z " fill="#FFFFFF" transform="translate(318.2421875,52.62890625)"/>
<path d="M0 0 C1.64696604 0.4752588 3.29254728 0.95531891 4.9375 1.4375 C6.31228516 1.83775391 6.31228516 1.83775391 7.71484375 2.24609375 C10 3 10 3 11 4 C11.25882175 5.5647579 11.45813851 7.13942245 11.63256836 8.71582031 C11.80295876 10.22308685 11.80295876 10.22308685 11.97679138 11.76080322 C12.09659866 12.85551941 12.21640594 13.9502356 12.33984375 15.078125 C12.60077629 17.37631743 12.86184841 19.67449402 13.12304688 21.97265625 C13.53136067 25.61089669 13.93742985 29.24936686 14.34057617 32.88818359 C14.73013666 36.38970651 15.12828056 39.89017425 15.52734375 43.390625 C15.6451268 44.47724426 15.76290985 45.56386353 15.88426208 46.68341064 C16.00100784 47.70086365 16.1177536 48.71831665 16.23803711 49.76660156 C16.386735 51.10443695 16.386735 51.10443695 16.53843689 52.46929932 C17.52120719 57.85772272 19.36190628 60.71428701 23.5 64.25 C24.3971875 65.02859375 25.294375 65.8071875 26.21875 66.609375 C27.1365625 67.39828125 28.054375 68.1871875 29 69 C30.67076298 70.495436 32.33752537 71.99535524 34 73.5 C34.825 74.2425 35.65 74.985 36.5 75.75 C39 78 41.5 80.25 44 82.5 C44.81855469 83.23605469 45.63710938 83.97210938 46.48046875 84.73046875 C48.21481186 86.29272201 49.94642979 87.85800423 51.67578125 89.42578125 C52.54589844 90.21339844 53.41601562 91.00101562 54.3125 91.8125 C55.09238281 92.52019531 55.87226562 93.22789063 56.67578125 93.95703125 C59.00272914 96.08116489 59.00272914 96.08116489 61.80078125 97.94140625 C64 100 64 100 64.3046875 102.5078125 C64.09199219 103.80332031 64.09199219 103.80332031 63.875 105.125 C63.74867187 105.99382812 63.62234375 106.86265625 63.4921875 107.7578125 C63 110 63 110 62 112 C59.18648214 110.71104283 57.0674293 109.33731495 54.828125 107.20703125 C54.2503833 106.66280518 53.6726416 106.1185791 53.07739258 105.55786133 C52.47435303 104.98189209 51.87131348 104.40592285 51.25 103.8125 C49.98906652 102.62416621 48.72735409 101.43665837 47.46484375 100.25 C46.86269043 99.6828125 46.26053711 99.115625 45.64013672 98.53125 C43.14483185 96.20160544 40.57232051 93.96819093 37.98828125 91.73828125 C35.45947072 89.52743511 32.98127436 87.26403557 30.5 85 C27.31559032 82.09630963 24.12225179 79.20825953 20.875 76.375 C20.25109375 75.82714844 19.6271875 75.27929688 18.984375 74.71484375 C17.5314747 73.45928621 16.05993776 72.22520677 14.578125 71.00390625 C13.36382813 69.98103516 13.36382813 69.98103516 12.125 68.9375 C11.01511719 68.02291016 11.01511719 68.02291016 9.8828125 67.08984375 C5.25184536 61.94966239 5.26210627 54.3797274 4.4921875 47.79296875 C4.36184113 46.71300125 4.23149475 45.63303375 4.09719849 44.52033997 C3.82361191 42.24040723 3.5531613 39.96009627 3.28564453 37.67944336 C2.87753073 34.20902024 2.45708986 30.74025128 2.03515625 27.27148438 C1.77009165 25.04956752 1.50574528 22.82756484 1.2421875 20.60546875 C1.11721893 19.57705368 0.99225037 18.54863861 0.86349487 17.48905945 C0.18261898 11.61293824 -0.12166896 5.91548355 0 0 Z " fill="#FFFFFF" transform="translate(0,28)"/>
<path d="M0 0 C-1.05666755 9.61494823 -2.12265818 19.22878585 -3.20240784 28.84117126 C-3.76038476 33.81960821 -4.30000299 38.79956176 -4.828125 43.78125 C-5.0724586 46.00005049 -5.31721622 48.21880435 -5.5625 50.4375 C-5.66473877 51.44675537 -5.76697754 52.45601074 -5.87231445 53.49584961 C-7.19177372 65.12667606 -14.2075692 70.66341888 -22.69921875 77.984375 C-25.5077302 80.44480269 -28.25461879 82.96974992 -31 85.5 C-34.90422633 89.09534575 -38.84634407 92.63591125 -42.859375 96.109375 C-46.22012452 99.07762823 -49.50605837 102.12778018 -52.7890625 105.18164062 C-60.16342543 112 -60.16342543 112 -63 112 C-64.30434944 108.08695169 -64.89957531 104.03989439 -64 100 C-61.89635517 97.02183141 -59.26997977 94.78756262 -56.5 92.4375 C-55.80390625 91.81681641 -55.1078125 91.19613281 -54.390625 90.55664062 C-52.27913028 88.68171151 -50.14281032 86.83900091 -48 85 C-43.45605366 81.04651587 -38.94242709 77.06776457 -34.5 73 C-27.16424419 66.3255814 -27.16424419 66.3255814 -24.5625 64 C-23.66724609 63.195625 -23.66724609 63.195625 -22.75390625 62.375 C-20.92360131 60.94010615 -19.08789197 60.00956574 -17 59 C-17.03275024 57.08634644 -17.03275024 57.08634644 -17.06616211 55.1340332 C-17.06358677 49.98416573 -16.5569457 44.96356798 -15.94140625 39.85546875 C-15.8327977 38.92326004 -15.72418915 37.99105133 -15.61228943 37.03059387 C-15.38355007 35.07650326 -15.15232085 33.12270262 -14.91870117 31.16918945 C-14.56151156 28.179226 -14.21276333 25.18836581 -13.86523438 22.19726562 C-13.64111771 20.29160866 -13.41652513 18.38600759 -13.19140625 16.48046875 C-13.03509483 15.14292793 -13.03509483 15.14292793 -12.87562561 13.77836609 C-12.77559738 12.9468251 -12.67556915 12.11528412 -12.57250977 11.25854492 C-12.48590591 10.53068283 -12.39930206 9.80282074 -12.31007385 9.05290222 C-11.9956379 6.97111988 -11.63942259 5.00747608 -11 3 C-9.2578125 1.953125 -9.2578125 1.953125 -7.125 1.25 C-6.42632812 1.00765625 -5.72765625 0.7653125 -5.0078125 0.515625 C-3 0 -3 0 0 0 Z " fill="#FFFFFF" transform="translate(130,28)"/>
<path d="M0 0 C1.58028992 0.61835724 1.58028992 0.61835724 3.19250488 1.24920654 C6.54037867 2.56341968 9.87937986 3.89872342 13.21875 5.234375 C15.4617077 6.11723788 17.70519305 6.9987615 19.94921875 7.87890625 C28.94724255 11.42209267 37.91434668 14.97935933 46.71875 18.984375 C44.05208333 21.65104167 41.38541667 24.31770833 38.71875 26.984375 C31.7921652 25.03753553 25.16185825 22.67521304 18.51171875 19.9375 C16.60762274 19.16747188 14.70331982 18.39795523 12.79882812 17.62890625 C9.83627797 16.42730558 6.87552726 15.22175857 3.91821289 14.00732422 C1.03725677 12.8266473 -1.84982754 11.66219048 -4.73828125 10.5 C-5.62167679 10.13239563 -6.50507233 9.76479126 -7.41523743 9.38604736 C-8.24347519 9.05530212 -9.07171295 8.72455688 -9.92504883 8.38378906 C-10.6476741 8.08861389 -11.37029938 7.79343872 -12.11482239 7.48931885 C-16.45648359 6.47737868 -20.2618291 8.25803508 -24.25170898 9.90551758 C-25.21298203 10.2987471 -26.17425507 10.69197662 -27.16465759 11.09712219 C-28.19184402 11.52011093 -29.21903046 11.94309967 -30.27734375 12.37890625 C-32.4662257 13.261184 -34.65569755 14.14199941 -36.84570312 15.02148438 C-40.29237589 16.40867108 -43.73485493 17.80353514 -47.16821289 19.22338867 C-50.48660921 20.59230136 -53.81742572 21.92584572 -57.15234375 23.25390625 C-58.17750595 23.68701614 -59.20266815 24.12012604 -60.25889587 24.56636047 C-62.95900723 25.62316361 -65.41946557 26.51856944 -68.28125 26.984375 C-71.72680664 25.4675293 -71.72680664 25.4675293 -74.28125 22.984375 C-75.065 22.241875 -75.84875 21.499375 -76.65625 20.734375 C-77.460625 19.868125 -77.460625 19.868125 -78.28125 18.984375 C-67.78193262 13.87103085 -56.82223059 9.91284289 -45.90625 5.796875 C-43.03547576 4.71051232 -40.16508415 3.62314399 -37.29476929 2.53556824 C-35.51991925 1.86349103 -33.74472829 1.19231323 -31.96914673 0.52217102 C-31.16415741 0.21812851 -30.35916809 -0.085914 -29.52978516 -0.39916992 C-28.7767511 -0.67997406 -28.02371704 -0.9607782 -27.24786377 -1.25009155 C-25.1632085 -2.03143336 -25.1632085 -2.03143336 -22.76318359 -3.2355957 C-14.60657653 -5.79907786 -7.61292586 -3.0772484 0 0 Z " fill="#FFFFFF" transform="translate(80.28125,4.015625)"/>
<path d="M0 0 C4.29 0 8.58 0 13 0 C13.33 4.29 13.66 8.58 14 13 C17.63 13 21.26 13 25 13 C25 17.29 25 21.58 25 26 C21.37 26 17.74 26 14 26 C14.0688642 30.3605117 14.15682189 34.72009398 14.26245117 39.07983398 C14.29569423 40.56279854 14.32372823 42.04588944 14.34643555 43.52905273 C14.37999468 45.66184293 14.43230638 47.79347612 14.48828125 49.92578125 C14.51446533 51.20880127 14.54064941 52.49182129 14.56762695 53.8137207 C14.73580341 56.95621276 14.73580341 56.95621276 16.390625 58.89648438 C18.44938327 60.30813295 20.24101312 60.72656769 22.6875 61.1875 C24.110625 61.455625 25.53375 61.72375 27 62 C27 65.96 27 69.92 27 74 C12.22627914 74.59182561 12.22627914 74.59182561 6.38671875 69.62890625 C0.1843981 63.45619095 -0.06707174 55.25891203 -0.22705078 46.88598633 C-0.22673952 44.70130904 -0.2157658 42.51661281 -0.1953125 40.33203125 C-0.1924826 39.17120529 -0.18965271 38.01037933 -0.18673706 36.81437683 C-0.17564091 33.14697474 -0.15055629 29.4798269 -0.125 25.8125 C-0.11495654 23.30924835 -0.10583309 20.80599282 -0.09765625 18.30273438 C-0.07573625 12.2017266 -0.04128027 6.10090624 0 0 Z " fill="#FFFFFF" transform="translate(430,37)"/>
<path d="M0 0 C2.04411689 0.99510795 4.0883916 1.98989178 6.1328125 2.984375 C7.17211914 3.49291016 8.21142578 4.00144531 9.28222656 4.52539062 C14.29669455 6.96821719 19.33595243 9.3584029 24.375 11.75 C26.13419613 12.58706822 27.89331872 13.42429103 29.65234375 14.26171875 C30.91404829 14.86200903 32.17576105 15.46228205 33.4375 16.0625 C33.4375 16.7225 33.4375 17.3825 33.4375 18.0625 C30.5987239 19.61341696 27.73958954 21.12237431 24.875 22.625 C24.07513672 23.06263672 23.27527344 23.50027344 22.45117188 23.95117188 C21.66162109 24.36044922 20.87207031 24.76972656 20.05859375 25.19140625 C19.3411499 25.57369385 18.62370605 25.95598145 17.88452148 26.34985352 C11.09854602 28.32613431 5.07646196 24.73758204 -0.8203125 21.73046875 C-1.6863913 21.29744949 -2.55247009 20.86443024 -3.4447937 20.41828918 C-5.26751859 19.50425596 -7.08780721 18.58535002 -8.90576172 17.66186523 C-11.67989076 16.25386205 -14.46217126 14.86313064 -17.24609375 13.47460938 C-19.02134164 12.58173908 -20.79609838 11.68789146 -22.5703125 10.79296875 C-23.39749786 10.37927536 -24.22468323 9.96558197 -25.07693481 9.53935242 C-29.28615916 7.39168832 -32.98732692 5.20665259 -36.5625 2.0625 C-33.36409079 0.68399909 -30.15253087 -0.66077643 -26.9375 -2 C-26.03386719 -2.38994141 -25.13023438 -2.77988281 -24.19921875 -3.18164062 C-14.38395868 -7.22953985 -9.15808263 -4.53042178 0 0 Z " fill="#FEFEFE" transform="translate(51.5625,30.9375)"/>
<path d="M0 0 C0.85149628 0.32869583 1.70299255 0.65739166 2.58029175 0.99604797 C5.26062639 2.03162691 7.93892664 3.07235242 10.6171875 4.11328125 C12.45038791 4.82260924 14.28372016 5.53159663 16.1171875 6.24023438 C20.57705201 7.96482273 25.03510165 9.69402497 29.4921875 11.42578125 C29.4921875 12.41578125 29.4921875 13.40578125 29.4921875 14.42578125 C27.27109222 15.63100345 25.042401 16.81465529 22.8046875 17.98828125 C21.86592773 18.50165039 21.86592773 18.50165039 20.90820312 19.02539062 C16.83714961 21.13551784 14.84522065 21.68586979 10.4921875 20.42578125 C7.75603629 19.36463943 5.08484923 18.17534693 2.41015625 16.96875 C1.63714676 16.62451492 0.86413727 16.28027985 0.06770325 15.9256134 C-1.5647394 15.19751252 -3.19609217 14.46696376 -4.82641602 13.73413086 C-7.29924416 12.62275014 -9.77524503 11.51871871 -12.25195312 10.41601562 C-13.84394276 9.70485845 -15.43574571 8.99328315 -17.02734375 8.28125 C-17.75782425 7.95505173 -18.48830475 7.62885345 -19.24092102 7.29277039 C-24.06133265 5.12358343 -28.79290899 2.81590858 -33.5078125 0.42578125 C-30.9971596 -2.20943047 -28.84385611 -3.57024134 -25.4453125 -4.94921875 C-24.56746094 -5.32820312 -23.68960938 -5.7071875 -22.78515625 -6.09765625 C-15.25245264 -7.19299575 -6.95890869 -2.71442297 0 0 Z " fill="#FEFEFE" transform="translate(83.5078125,20.57421875)"/>
</svg>
