<?xml version="1.0" encoding="UTF-8"?>
<svg version="1.1" xmlns="http://www.w3.org/2000/svg" width="148" height="148">
<path d="M0 0 C1.20184937 -0.00241196 2.40369873 -0.00482391 3.64196777 -0.00730896 C6.18045352 -0.0063304 8.71896058 0.00706498 11.25732422 0.03198242 C15.14233922 0.06628343 19.02507911 0.05264081 22.91015625 0.03320312 C25.37761385 0.04010167 27.84506558 0.04977413 30.3125 0.0625 C32.05484924 0.0550602 32.05484924 0.0550602 33.83239746 0.04747009 C41.87688098 0.16492553 41.87688098 0.16492553 45.86523438 2.53930664 C48.63031231 5.76535654 48.78463585 7.57500418 48.80151367 11.74951172 C48.80789352 12.8175705 48.81427338 13.88562927 48.82084656 14.98605347 C48.82195938 16.14436676 48.8230722 17.30268005 48.82421875 18.49609375 C48.82921135 20.2754985 48.82921135 20.2754985 48.83430481 22.09085083 C48.83937538 24.60434582 48.8417131 27.11784756 48.84155273 29.63134766 C48.84373695 33.48090705 48.86188535 37.33017894 48.88085938 41.1796875 C48.88379368 43.6184886 48.88577823 46.05729107 48.88671875 48.49609375 C48.89390427 49.65035858 48.90108978 50.80462341 48.90849304 51.99386597 C48.90541641 53.06822906 48.90233978 54.14259216 48.89916992 55.24951172 C48.90059494 56.19390106 48.90201996 57.13829041 48.90348816 58.11129761 C48.63909352 60.80360952 48.13394948 62.37414945 46.65625 64.62890625 C43.30939913 66.86014016 42.16869918 66.89250364 38.25439453 66.93530273 C37.14959747 66.95129013 36.04480042 66.96727753 34.90652466 66.98374939 C33.11588089 66.99179344 33.11588089 66.99179344 31.2890625 67 C30.06218719 67.00902847 28.83531189 67.01805695 27.57125854 67.02735901 C24.97380012 67.04187819 22.37630498 67.05075237 19.77880859 67.05444336 C15.80373539 67.06633896 11.83021417 67.11551217 7.85546875 67.16601562 C5.33334092 67.17547954 2.81120354 67.18271472 0.2890625 67.1875 C-0.90065155 67.20703232 -2.0903656 67.22656464 -3.31613159 67.24668884 C-8.05664566 67.22075821 -11.37968986 67.14825524 -15.59179688 64.87915039 C-18.35800867 59.74724158 -18.05691803 54.80818688 -18.0078125 49.06640625 C-18.01259613 47.84236084 -18.01737976 46.61831543 -18.02230835 45.35717773 C-18.02570778 42.77163405 -18.01650263 40.18604741 -17.99560547 37.60058594 C-17.96884466 33.64290529 -17.99535625 29.68806117 -18.02734375 25.73046875 C-18.02403966 23.21744166 -18.01763347 20.70441633 -18.0078125 18.19140625 C-18.01793365 17.00796631 -18.02805481 15.82452637 -18.03848267 14.60522461 C-17.97104247 9.87846392 -17.85763126 6.57125816 -15.57373047 2.38305664 C-10.50758819 -0.36828367 -5.67634688 -0.06479028 0 0 Z M-8.34375 9.62890625 C-8.34375 25.46890625 -8.34375 41.30890625 -8.34375 57.62890625 C7.49625 57.62890625 23.33625 57.62890625 39.65625 57.62890625 C39.65625 41.78890625 39.65625 25.94890625 39.65625 9.62890625 C23.81625 9.62890625 7.97625 9.62890625 -8.34375 9.62890625 Z " fill="#FFFFFF" transform="translate(19.34375,79.37109375)"/>
<path d="M0 0 C1.22641708 -0.00241196 2.45283417 -0.00482391 3.71641541 -0.00730896 C6.3061751 -0.0063304 8.89595569 0.00706503 11.4855957 0.03198242 C15.45400846 0.06631252 19.4201978 0.05263352 23.38867188 0.03320312 C25.90495741 0.04010073 28.4212372 0.04977233 30.9375 0.0625 C32.72040184 0.0550602 32.72040184 0.0550602 34.5393219 0.04747009 C35.64404343 0.06330643 36.74876495 0.07914276 37.88696289 0.09545898 C38.8578334 0.10165756 39.82870392 0.10785614 40.82899475 0.11424255 C44.12233685 0.77290316 45.29990946 2.06888431 47.40234375 4.62890625 C48.66151464 7.14724802 48.54981863 8.91482678 48.5793457 11.73364258 C48.59859856 13.33088921 48.59859856 13.33088921 48.61824036 14.96040344 C48.62562729 16.11557968 48.63301422 17.27075592 48.640625 18.4609375 C48.64869675 19.64483566 48.65676849 20.82873383 48.66508484 22.04850769 C48.67893439 24.55779552 48.68965263 27.06710226 48.69750977 29.57641602 C48.71472639 33.41523909 48.75860693 37.25320207 48.80273438 41.09179688 C48.81286063 43.5273374 48.82137694 45.96288527 48.828125 48.3984375 C48.84563309 49.54754105 48.86314117 50.69664459 48.88117981 51.88056946 C48.85945181 59.85923464 48.85945181 59.85923464 46.50073242 63.83081055 C43.25850137 66.6090574 41.40361654 66.76539836 37.20581055 66.82177734 C35.57853279 66.84587173 35.57853279 66.84587173 33.91838074 66.87045288 C28.9547889 66.91483228 23.99133163 66.95596451 19.02758789 66.97900391 C16.40770592 66.99557207 13.7878693 67.02287294 11.16821289 67.06103516 C7.39575693 67.11572566 3.62436121 67.13766696 -0.1484375 67.15234375 C-1.90490349 67.18634781 -1.90490349 67.18634781 -3.69685364 67.22103882 C-8.39931011 67.20879165 -11.65716209 67.13671776 -15.83422852 64.88134766 C-18.61616781 59.7503778 -18.31087338 54.81392767 -18.26171875 49.06640625 C-18.26650238 47.84236084 -18.27128601 46.61831543 -18.2762146 45.35717773 C-18.27961403 42.77163405 -18.27040888 40.18604741 -18.24951172 37.60058594 C-18.22275091 33.64290529 -18.2492625 29.68806117 -18.28125 25.73046875 C-18.27794591 23.21744166 -18.27153972 20.70441633 -18.26171875 18.19140625 C-18.2718399 17.00796631 -18.28196106 15.82452637 -18.29238892 14.60522461 C-18.22508752 9.88819223 -18.10640432 6.57028489 -15.84350586 2.38305664 C-10.70497738 -0.3939518 -5.75048014 -0.06425295 0 0 Z M-8.59765625 9.62890625 C-8.59765625 25.46890625 -8.59765625 41.30890625 -8.59765625 57.62890625 C7.24234375 57.62890625 23.08234375 57.62890625 39.40234375 57.62890625 C39.40234375 41.78890625 39.40234375 25.94890625 39.40234375 9.62890625 C23.56234375 9.62890625 7.72234375 9.62890625 -8.59765625 9.62890625 Z " fill="#FFFFFF" transform="translate(19.59765625,1.37109375)"/>
<path d="M0 0 C1.22404541 -0.00478363 2.44809082 -0.00956726 3.70922852 -0.01449585 C6.2947722 -0.01789528 8.88035884 -0.00869013 11.46582031 0.01220703 C15.42350096 0.03896784 19.37834508 0.01245625 23.3359375 -0.01953125 C25.84896459 -0.01622716 28.36198992 -0.00982097 30.875 0 C32.05843994 -0.01012115 33.24187988 -0.02024231 34.46118164 -0.03067017 C39.17802801 0.03662858 42.49416423 0.15292613 46.67895508 2.42041016 C49.45671352 7.54401125 49.17059511 12.48628941 49.13671875 18.2265625 C49.14387405 19.45060791 49.15102936 20.67465332 49.15840149 21.93579102 C49.16617891 24.5213142 49.16116571 27.10690303 49.14428711 29.69238281 C49.1250666 33.65034708 49.16444671 37.6047996 49.20898438 41.5625 C49.20927473 44.07552292 49.20613479 46.58854908 49.19921875 49.1015625 C49.22214241 50.87672241 49.22214241 50.87672241 49.24552917 52.68774414 C49.17376504 57.74178231 49.10686473 60.71268298 46.15380859 64.90991211 C41.40129872 67.90059739 35.62733299 67.35621948 30.21484375 67.29296875 C28.44748619 67.29658669 28.44748619 67.29658669 26.64442444 67.30027771 C24.15899278 67.29930012 21.67353912 67.2859279 19.18823242 67.26098633 C15.38450206 67.22664828 11.58309142 67.2403422 7.77929688 67.25976562 C5.36196928 67.25286793 2.94464768 67.24319625 0.52734375 67.23046875 C-1.17748924 67.23790855 -1.17748924 67.23790855 -2.91676331 67.24549866 C-10.78693828 67.12807125 -10.78693828 67.12807125 -14.75561523 64.75366211 C-17.55025618 61.52175672 -17.69898158 59.66611909 -17.75537109 55.4675293 C-17.77143402 54.38267746 -17.78749695 53.29782562 -17.80404663 52.18009949 C-17.84842603 47.21650765 -17.88955826 42.25305038 -17.91259766 37.28930664 C-17.92916582 34.66942467 -17.95646669 32.04958805 -17.99462891 29.42993164 C-18.04931941 25.65747568 -18.07126071 21.88607996 -18.0859375 18.11328125 C-18.10860687 16.94230392 -18.13127625 15.7713266 -18.15463257 14.56486511 C-18.1423854 9.86240864 -18.07031151 6.60455666 -15.81494141 2.42749023 C-10.68397155 -0.35444906 -5.74752142 -0.04915463 0 0 Z M-8.5625 9.6640625 C-8.5625 25.5040625 -8.5625 41.3440625 -8.5625 57.6640625 C7.2775 57.6640625 23.1175 57.6640625 39.4375 57.6640625 C39.4375 41.8240625 39.4375 25.9840625 39.4375 9.6640625 C23.5975 9.6640625 7.7575 9.6640625 -8.5625 9.6640625 Z " fill="#FFFFFF" transform="translate(97.5625,1.3359375)"/>
<path d="M0 0 C0.98484375 -0.00128906 1.9696875 -0.00257812 2.984375 -0.00390625 C4.02078125 -0.00003906 5.0571875 0.00382812 6.125 0.0078125 C7.67960937 0.00201172 7.67960937 0.00201172 9.265625 -0.00390625 C10.25046875 -0.00261719 11.2353125 -0.00132813 12.25 0 C13.16007812 0.00112793 14.07015625 0.00225586 15.0078125 0.00341797 C17.125 0.1328125 17.125 0.1328125 18.125 1.1328125 C18.21213831 2.84053608 18.23200007 4.55179899 18.22265625 6.26171875 C18.22015869 7.19314697 18.21766113 8.1245752 18.21508789 9.08422852 C18.20598389 10.27588623 18.19687988 11.46754395 18.1875 12.6953125 C18.166875 16.4696875 18.14625 20.2440625 18.125 24.1328125 C10.205 24.1328125 2.285 24.1328125 -5.875 24.1328125 C-5.895625 20.3584375 -5.91625 16.5840625 -5.9375 12.6953125 C-5.946604 11.50365479 -5.95570801 10.31199707 -5.96508789 9.08422852 C-5.96758545 8.15280029 -5.97008301 7.22137207 -5.97265625 6.26171875 C-5.97789307 5.30338135 -5.98312988 4.34504395 -5.98852539 3.35766602 C-5.77720219 -0.78381429 -3.62198603 0.00448901 0 0 Z " fill="#FFFFFF" transform="translate(106.875,100.8671875)"/>
<path d="M0 0 C3.774375 -0.020625 7.54875 -0.04125 11.4375 -0.0625 C12.62915771 -0.071604 13.82081543 -0.08070801 15.04858398 -0.09008789 C16.44572632 -0.09383423 16.44572632 -0.09383423 17.87109375 -0.09765625 C18.82943115 -0.10289307 19.78776855 -0.10812988 20.77514648 -0.11352539 C23 0 23 0 24 1 C24.0991657 2.62257544 24.13079777 4.24939831 24.1328125 5.875 C24.13474609 7.35226563 24.13474609 7.35226563 24.13671875 8.859375 C24.13285156 9.89578125 24.12898438 10.9321875 24.125 12 C24.13080078 13.55460937 24.13080078 13.55460937 24.13671875 15.140625 C24.13542969 16.12546875 24.13414063 17.1103125 24.1328125 18.125 C24.13168457 19.03507812 24.13055664 19.94515625 24.12939453 20.8828125 C24 23 24 23 23 24 C21.29227642 24.08713831 19.58101351 24.10700007 17.87109375 24.09765625 C16.93966553 24.09515869 16.0082373 24.09266113 15.04858398 24.09008789 C13.26109741 24.07643188 13.26109741 24.07643188 11.4375 24.0625 C7.663125 24.041875 3.88875 24.02125 0 24 C0 16.08 0 8.16 0 0 Z " fill="#FFFFFF" transform="translate(23,101)"/>
<path d="M0 0 C7.92 0 15.84 0 24 0 C24.020625 3.774375 24.04125 7.54875 24.0625 11.4375 C24.071604 12.62915771 24.08070801 13.82081543 24.09008789 15.04858398 C24.09258545 15.98001221 24.09508301 16.91144043 24.09765625 17.87109375 C24.10551147 19.30859985 24.10551147 19.30859985 24.11352539 20.77514648 C24 23 24 23 23 24 C21.37742456 24.0991657 19.75060169 24.13079777 18.125 24.1328125 C17.14015625 24.13410156 16.1553125 24.13539062 15.140625 24.13671875 C14.10421875 24.13285156 13.0678125 24.12898438 12 24.125 C10.44539063 24.13080078 10.44539063 24.13080078 8.859375 24.13671875 C7.87453125 24.13542969 6.8896875 24.13414063 5.875 24.1328125 C4.96492188 24.13168457 4.05484375 24.13055664 3.1171875 24.12939453 C1 24 1 24 0 23 C-0.08713831 21.29227642 -0.10700007 19.58101351 -0.09765625 17.87109375 C-0.09515869 16.93966553 -0.09266113 16.0082373 -0.09008789 15.04858398 C-0.08098389 13.85692627 -0.07187988 12.66526855 -0.0625 11.4375 C-0.041875 7.663125 -0.02125 3.88875 0 0 Z " fill="#FFFFFF" transform="translate(101,23)"/>
<path d="M0 0 C3.774375 -0.020625 7.54875 -0.04125 11.4375 -0.0625 C12.62915771 -0.071604 13.82081543 -0.08070801 15.04858398 -0.09008789 C16.44572632 -0.09383423 16.44572632 -0.09383423 17.87109375 -0.09765625 C18.82943115 -0.10289307 19.78776855 -0.10812988 20.77514648 -0.11352539 C23 0 23 0 24 1 C24.0991657 2.62257544 24.13079777 4.24939831 24.1328125 5.875 C24.13474609 7.35226563 24.13474609 7.35226563 24.13671875 8.859375 C24.13285156 9.89578125 24.12898438 10.9321875 24.125 12 C24.13080078 13.55460937 24.13080078 13.55460937 24.13671875 15.140625 C24.13542969 16.12546875 24.13414063 17.1103125 24.1328125 18.125 C24.13168457 19.03507812 24.13055664 19.94515625 24.12939453 20.8828125 C24 23 24 23 23 24 C21.29227642 24.08713831 19.58101351 24.10700007 17.87109375 24.09765625 C16.93966553 24.09515869 16.0082373 24.09266113 15.04858398 24.09008789 C13.26109741 24.07643188 13.26109741 24.07643188 11.4375 24.0625 C7.663125 24.041875 3.88875 24.02125 0 24 C0 16.08 0 8.16 0 0 Z " fill="#FFFFFF" transform="translate(23,23)"/>
<path d="M0 0 C5.61 0 11.22 0 17 0 C17 5.61 17 11.22 17 17 C11.39 17 5.78 17 0 17 C0 11.39 0 5.78 0 0 Z " fill="#FFFFFF" transform="translate(79,129)"/>
<path d="M0 0 C5.61 0 11.22 0 17 0 C17 5.61 17 11.22 17 17 C11.39 17 5.78 17 0 17 C0 11.39 0 5.78 0 0 Z " fill="#FFFFFF" transform="translate(129,81)"/>
<path d="M0 0 C5.61 0 11.22 0 17 0 C17 5.61 17 11.22 17 17 C11.39 17 5.78 17 0 17 C0 11.39 0 5.78 0 0 Z " fill="#FFFFFF" transform="translate(80,81)"/>
</svg>
