<?xml version="1.0" encoding="UTF-8"?>
<svg version="1.1" xmlns="http://www.w3.org/2000/svg" width="394" height="100">
<path d="M0 0 C2.0710521 1.55910664 3.37410903 2.9405381 5 5 C5 5.66 5 6.32 5 7 C5.44988281 6.54109375 5.89976562 6.0821875 6.36328125 5.609375 C12.90549792 -0.63129662 19.98918177 -4.09703472 29.125 -4.4375 C35.40066899 -4.13818351 40.79683055 -2.75252115 45.75 1.1875 C50.85299003 7.56623754 54.13450477 12.73610975 54.11352539 21.04394531 C54.11341209 22.54504852 54.11341209 22.54504852 54.11329651 24.07647705 C54.10813522 25.14952087 54.10297394 26.2225647 54.09765625 27.328125 C54.0962413 28.43226746 54.09482635 29.53640991 54.09336853 30.67401123 C54.08777258 34.19936842 54.07522079 37.72466202 54.0625 41.25 C54.05748448 43.64062408 54.05292166 46.03124916 54.04882812 48.421875 C54.03780447 54.28127449 54.02054257 60.14062646 54 66 C50.7 66 47.4 66 44 66 C43.98541748 64.5773584 43.97083496 63.1547168 43.95581055 61.68896484 C43.89774184 56.3996495 43.82050874 51.11075603 43.73754883 45.82177734 C43.70433994 43.53473774 43.67629549 41.24761697 43.65356445 38.96044922 C43.6199449 35.66859422 43.56762376 32.37748028 43.51171875 29.0859375 C43.50532883 28.06696381 43.4989389 27.04799011 43.49235535 25.99813843 C43.34675266 18.93253742 42.3345078 14.50125836 37.375 9.1875 C33.57867731 6.28387695 29.70209531 5.7290318 25 6 C19.37792332 7.14859631 15.6851997 9.53309128 12 14 C11.1045468 16.68635959 10.85874723 18.32118949 10.81054688 21.08496094 C10.78547058 22.31203766 10.78547058 22.31203766 10.7598877 23.56390381 C10.74631226 24.4451593 10.73273682 25.32641479 10.71875 26.234375 C10.70034058 27.14576233 10.68193115 28.05714966 10.66296387 28.99615479 C10.60421078 31.91403748 10.55143792 34.83197975 10.5 37.75 C10.43202429 41.57823956 10.35825111 45.40630762 10.28125 49.234375 C10.26767456 50.10753357 10.25409912 50.98069214 10.2401123 51.88031006 C10.14360602 56.67550959 9.78999909 61.26800143 9 66 C6.03 66 3.06 66 0 66 C-0.01458252 64.68394775 -0.02916504 63.36789551 -0.04418945 62.01196289 C-0.10246299 57.09714523 -0.17969323 52.18277185 -0.26245117 47.26831055 C-0.29556435 45.14729053 -0.323638 43.02618527 -0.34643555 40.9050293 C-0.38023269 37.84387116 -0.43256049 34.78348462 -0.48828125 31.72265625 C-0.49467117 30.78478775 -0.5010611 29.84691925 -0.50764465 28.88063049 C-0.66173887 21.87230325 -1.3167173 14.828325 -6.3125 9.5625 C-11.34678996 6.63558723 -15.31389205 5.52002808 -21.046875 6.4609375 C-26.34160714 7.92228357 -30.09273349 11.47758543 -33 16 C-34.24041404 21.34944712 -34.21838018 26.74740923 -34.31640625 32.2109375 C-34.33718735 33.17907379 -34.35796844 34.14721008 -34.37937927 35.14468384 C-34.44448984 38.22138732 -34.50357998 41.29817236 -34.5625 44.375 C-34.60572186 46.46745617 -34.6493373 48.55990426 -34.69335938 50.65234375 C-34.80013156 55.76814669 -34.90150636 60.88403125 -35 66 C-37.97 66 -40.94 66 -44 66 C-44 43.23 -44 20.46 -44 -3 C-41.03 -3 -38.06 -3 -35 -3 C-34.67 -0.69 -34.34 1.62 -34 4 C-33.57589844 3.59007812 -33.15179688 3.18015625 -32.71484375 2.7578125 C-23.14547259 -6.03339002 -11.15866777 -6.14220474 0 0 Z " fill="#FFFFFF" transform="translate(265,31)"/>
<path d="M0 0 C0.81791016 0.67482422 0.81791016 0.67482422 1.65234375 1.36328125 C1.98234375 -0.61671875 2.31234375 -2.59671875 2.65234375 -4.63671875 C5.95234375 -4.63671875 9.25234375 -4.63671875 12.65234375 -4.63671875 C12.65234375 18.13328125 12.65234375 40.90328125 12.65234375 64.36328125 C9.35234375 64.36328125 6.05234375 64.36328125 2.65234375 64.36328125 C2.32234375 62.71328125 1.99234375 61.06328125 1.65234375 59.36328125 C1.0490625 59.71261719 0.44578125 60.06195313 -0.17578125 60.421875 C-0.975 60.87691406 -1.77421875 61.33195312 -2.59765625 61.80078125 C-3.3865625 62.25324219 -4.17546875 62.70570312 -4.98828125 63.171875 C-12.74638953 67.08946279 -24.09977446 66.45221672 -32.47265625 64.71484375 C-40.50923844 61.77646839 -47.05938229 56.07070892 -51.31640625 48.6640625 C-56.49961135 37.10001779 -56.48961921 26.18188985 -52.34765625 14.36328125 C-47.55922371 4.85896818 -40.3556387 -1.18873893 -30.34765625 -4.63671875 C-20.08280951 -7.08461543 -8.84641208 -6.16746533 0 0 Z M-39.34765625 13.36328125 C-44.21279225 19.75746 -46.26107744 26.32218 -45.34765625 34.36328125 C-43.9767855 41.97772175 -40.05927205 47.25567677 -34.34765625 52.36328125 C-27.70526886 56.227943 -20.72067116 57.21075581 -13.28515625 55.36328125 C-6.4149081 52.99128267 -1.27723684 48.7402385 2.15234375 42.30078125 C5.04039972 34.75831366 5.03555048 25.74836391 1.90234375 18.30078125 C-1.66860975 11.58191404 -5.80466286 7.06103379 -13.2734375 4.7734375 C-23.5219471 2.74689605 -32.56135754 5.2197228 -39.34765625 13.36328125 Z " fill="#FFFFFF" transform="translate(170.34765625,32.63671875)"/>
<path d="M0 0 C6.37094417 4.99307402 10.55085992 11.71136662 12.01171875 19.6796875 C12.15791186 23.68739511 12.11021488 27.67176977 12.01171875 31.6796875 C-0.52445174 32.58585515 -12.98508483 32.80430688 -25.55078125 32.7421875 C-27.35221227 32.73715421 -29.15364469 32.73259459 -30.95507812 32.72851562 C-35.29951448 32.71767386 -39.64388176 32.70051396 -43.98828125 32.6796875 C-43.69603563 34.11450216 -43.39642281 35.54781744 -43.09375 36.98046875 C-42.92770264 37.77880127 -42.76165527 38.57713379 -42.59057617 39.3996582 C-40.92490811 45.70516046 -36.14819342 50.02805735 -30.98828125 53.6796875 C-25.36174624 56.43043795 -18.79910797 56.58765839 -12.7421875 55.14453125 C-6.2396938 52.89508636 -2.10353655 49.16669456 2.01171875 43.6796875 C4.98365725 44.80420477 7.34612562 45.90262541 10.01171875 47.6796875 C9.23692004 53.86731606 5.72809097 56.89709367 1.01171875 60.6796875 C-8.79015552 66.28533455 -19.68467369 66.97267782 -30.72265625 65.25390625 C-39.93202088 62.59233456 -46.15858418 56.36038006 -50.796875 48.20703125 C-55.40159356 38.43898893 -55.78946894 26.01686875 -52.55078125 15.6796875 C-48.63700209 6.75352451 -42.04692951 0.50010644 -33.25 -3.48046875 C-22.28316757 -7.55278131 -9.73216302 -6.46261513 0 0 Z M-39.515625 12.41015625 C-41.70635005 15.57829085 -41.70635005 15.57829085 -43.98828125 23.6796875 C-28.47828125 23.6796875 -12.96828125 23.6796875 3.01171875 23.6796875 C-0.41354671 13.29597855 -0.41354671 13.29597855 -8.0625 6.359375 C-19.39992457 0.70055576 -30.62712934 3.78372926 -39.515625 12.41015625 Z " fill="#FFFFFF" transform="translate(381.98828125,32.3203125)"/>
<path d="M0 0 C7.24989385 5.70019535 10.64957508 13.35453619 12.52734375 22.2265625 C12.87788392 25.30817685 12.7890625 28.42585614 12.7890625 31.52734375 C-6.0209375 31.52734375 -24.8309375 31.52734375 -44.2109375 31.52734375 C-42.17859993 41.68903162 -40.74723312 45.21786291 -33.7109375 51.90234375 C-27.86249614 55.70383063 -22.02727592 56.31036937 -15.2109375 55.52734375 C-7.38418922 53.68438365 -2.90714215 49.93408652 1.7890625 43.52734375 C5.72579894 44.83958923 8.01625544 46.44644702 10.7890625 49.52734375 C3.0334389 58.73574986 -3.68903524 64.6785487 -16.1328125 65.91796875 C-26.96441505 66.37298089 -35.8164836 64.21521681 -44.390625 57.359375 C-51.77633989 49.92611259 -54.61506025 40.52971727 -54.5859375 30.27734375 C-54.50608064 18.90449892 -51.73838176 11.0290172 -43.72265625 2.6953125 C-31.52581017 -7.83229181 -13.34366475 -8.88791804 0 0 Z M-40.6171875 14.015625 C-42.72481382 17.07514816 -42.72481382 17.07514816 -44.2109375 23.52734375 C-28.7009375 23.52734375 -13.1909375 23.52734375 2.7890625 23.52734375 C-0.63620296 13.1436348 -0.63620296 13.1436348 -8.28515625 6.20703125 C-20.55946288 0.0805885 -31.9006473 4.06662317 -40.6171875 14.015625 Z " fill="#FFFFFF" transform="translate(95.2109375,32.47265625)"/>
<path d="M0 0 C3.3 0 6.6 0 10 0 C10 31.68 10 63.36 10 96 C6.7 96 3.4 96 0 96 C0 64.32 0 32.64 0 0 Z " fill="#FFFFFF" transform="translate(197,1)"/>
<path d="M0 0 C13.53 0 27.06 0 41 0 C41 2.97 41 5.94 41 9 C30.44 9 19.88 9 9 9 C9 28.8 9 48.6 9 69 C6.03 69 3.06 69 0 69 C0 46.23 0 23.46 0 0 Z " fill="#FFFFFF" transform="translate(0,28)"/>
</svg>
