<?xml version="1.0" encoding="UTF-8"?>
<svg version="1.1" xmlns="http://www.w3.org/2000/svg" width="375" height="100">
<path d="M0 0 C6.6 0 13.2 0 20 0 C20.67270149 3.87403985 21.33836463 7.7490685 22 11.625 C22.19078125 12.71941406 22.3815625 13.81382813 22.578125 14.94140625 C22.84882813 16.53662109 22.84882813 16.53662109 23.125 18.1640625 C23.29257813 19.13811035 23.46015625 20.1121582 23.6328125 21.11572266 C24.01375517 24.10804756 24.06252962 26.98685417 24 30 C24.66 30 25.32 30 26 30 C26.03738281 29.34257813 26.07476562 28.68515625 26.11328125 28.0078125 C26.76780031 18.53653671 28.37139147 9.34679677 30 0 C36.6 0 43.2 0 50 0 C51.125 9 51.125 9 51.11352539 12.58007812 C51.11344986 13.38030396 51.11337433 14.18052979 51.11329651 15.00500488 C51.10813522 15.83866577 51.10297394 16.67232666 51.09765625 17.53125 C51.0962413 18.40777222 51.09482635 19.28429443 51.09336853 20.18737793 C51.08781768 22.95828821 51.07527461 25.72911457 51.0625 28.5 C51.05747864 30.39062382 51.05291685 32.28124893 51.04882812 34.171875 C51.0378644 38.78128183 51.02063425 43.39062673 51 48 C47.04 48 43.08 48 39 48 C38.67 37.11 38.34 26.22 38 15 C36.06615468 25.48541992 36.06615468 25.48541992 34.14086914 35.97241211 C33.89973389 37.26928955 33.65859863 38.56616699 33.41015625 39.90234375 C33.28572144 40.58816528 33.16128662 41.27398682 33.03308105 41.98059082 C32.1140718 46.8859282 32.1140718 46.8859282 31 48 C28.98035801 48.07244053 26.95832876 48.08377188 24.9375 48.0625 C23.83277344 48.05347656 22.72804687 48.04445312 21.58984375 48.03515625 C20.73519531 48.02355469 19.88054687 48.01195312 19 48 C17.1805825 42.09099093 15.99640244 36.13883989 14.875 30.0625 C14.69324219 29.09248047 14.51148438 28.12246094 14.32421875 27.12304688 C13.87985936 24.74923226 13.43853091 22.37489701 13 20 C12.14268873 26.16687772 11.71315753 32.28188912 11.4375 38.5 C11.39431641 39.4178125 11.35113281 40.335625 11.30664062 41.28125 C11.20166614 43.52070562 11.10044292 45.76033656 11 48 C7.04 48 3.08 48 -1 48 C-1.02496148 42.93205106 -1.0429822 37.86413894 -1.05493164 32.79614258 C-1.05992009 31.07673518 -1.06671324 29.35733194 -1.07543945 27.63793945 C-1.1213132 18.35795048 -1.06516755 9.23424785 0 0 Z " fill="#FFFFFF" transform="translate(114,26)"/>
<path d="M0 0 C6.27 0 12.54 0 19 0 C21.64 8.91 24.28 17.82 27 27 C27.33 18.09 27.66 9.18 28 0 C31.96 0 35.92 0 40 0 C40 15.51 40 31.02 40 47 C34.39 47 28.78 47 23 47 C21.08800183 42.53867094 19.48743284 38.64481276 18.17578125 34.06640625 C17.89903564 33.10935791 17.62229004 32.15230957 17.3371582 31.16625977 C16.999021 29.97701904 16.66088379 28.78777832 16.3125 27.5625 C15.219375 23.746875 14.12625 19.93125 13 16 C13 26.23 13 36.46 13 47 C8.71 47 4.42 47 0 47 C0 31.49 0 15.98 0 0 Z " fill="#FFFFFF" transform="translate(265,26)"/>
<path d="M0 0 C2.60985366 2.18499376 3.49113021 3.17839011 4.6875 6.25 C4.93815631 9.27792822 4.77707617 12.20441028 4.6875 15.25 C0.7275 15.25 -3.2325 15.25 -7.3125 15.25 C-8.3025 12.94 -9.2925 10.63 -10.3125 8.25 C-11.9625 8.25 -13.6125 8.25 -15.3125 8.25 C-15.33715881 12.21930989 -15.35534023 16.18859034 -15.36743164 20.15795898 C-15.37247057 21.50920386 -15.37930177 22.86044326 -15.38793945 24.21166992 C-15.40002419 26.15020434 -15.40519828 28.088778 -15.41015625 30.02734375 C-15.41539307 31.19515381 -15.42062988 32.36296387 -15.42602539 33.56616211 C-15.61911495 36.16891551 -15.61911495 36.16891551 -14.3125 37.25 C-12.6625 37.25 -11.0125 37.25 -9.3125 37.25 C-8.6525 33.95 -7.9925 30.65 -7.3125 27.25 C-8.9625 27.25 -10.6125 27.25 -12.3125 27.25 C-12.3125 24.61 -12.3125 21.97 -12.3125 19.25 C-6.3725 19.25 -0.4325 19.25 5.6875 19.25 C5.86940955 38.35050251 5.86940955 38.35050251 2.9375 43.0625 C-1.44822711 47.32640136 -5.79068798 47.54449604 -11.75 47.5625 C-13.02746094 47.57925781 -14.30492187 47.59601563 -15.62109375 47.61328125 C-20.34243833 47.14864099 -23.75207067 45.81042933 -27.125 42.4375 C-30.26663017 36.65028653 -29.5296414 29.34903336 -29.5625 22.9375 C-29.583125 21.94298828 -29.60375 20.94847656 -29.625 19.92382812 C-29.65792126 13.65644302 -29.18603266 7.92201036 -26.3125 2.25 C-19.89685713 -3.72821268 -7.65958344 -4.06361058 0 0 Z " fill="#FFFFFF" transform="translate(345.3125,26.75)"/>
<path d="M0 0 C1.03543945 -0.03673828 1.03543945 -0.03673828 2.09179688 -0.07421875 C7.24125842 -0.10350479 10.09328378 1.16840173 14.0625 4.375 C16.86726313 7.94469854 16.20716817 12.03495488 16.0625 16.375 C11.7725 16.375 7.4825 16.375 3.0625 16.375 C2.7325 14.395 2.4025 12.415 2.0625 10.375 C1.0725 10.045 0.0825 9.715 -0.9375 9.375 C-1.9275 9.87 -1.9275 9.87 -2.9375 10.375 C-2.78895136 12.78601734 -2.78895136 12.78601734 -1.9375 15.375 C0.06989795 17.02998857 0.06989795 17.02998857 2.625 18.25 C7.89491695 21.17268382 14.27472969 24.79945938 17.0625 30.375 C18.0104681 41.6959267 18.0104681 41.6959267 14.0625 46.375 C11.99782144 48.78379165 11.17255341 49.33831553 8.0625 50.375 C-8.779734 51.50647167 -8.779734 51.50647167 -14.9375 46.375 C-17.98174687 41.80862969 -17.06533166 37.80784541 -16.9375 32.375 C-12.6475 32.375 -8.3575 32.375 -3.9375 32.375 C-3.6075 34.685 -3.2775 36.995 -2.9375 39.375 C-1.28135343 39.75718767 0.38707024 40.08895102 2.0625 40.375 C3.31802499 39.32525504 3.31802499 39.32525504 3.35083008 36.98461914 C3.3326437 34.32995709 3.3326437 34.32995709 1.54956055 32.86108398 C0.85644775 32.45188721 0.16333496 32.04269043 -0.55078125 31.62109375 C-1.30423828 31.15896484 -2.05769531 30.69683594 -2.83398438 30.22070312 C-3.63126953 29.75599609 -4.42855469 29.29128906 -5.25 28.8125 C-6.81268747 27.88052806 -8.37144312 26.94192504 -9.92578125 25.99609375 C-10.62227783 25.5880249 -11.31877441 25.17995605 -12.03637695 24.75952148 C-15.05817288 22.5588531 -16.74965232 20.49531681 -17.37109375 16.7890625 C-17.37938621 10.86824879 -17.21610185 6.88487763 -12.9375 2.375 C-8.73476196 0.1666522 -4.65451034 0.00864347 0 0 Z " fill="#FFFFFF" transform="translate(41.9375,24.625)"/>
<path d="M0 0 C4.29 0 8.58 0 13 0 C13.33 12.54 13.66 25.08 14 38 C14.99 38.33 15.98 38.66 17 39 C18.63851547 38.00972643 18.63851547 38.00972643 20 36 C20.33109523 33.20859238 20.48857678 30.62783312 20.51171875 27.83203125 C20.52966995 27.03721848 20.54762115 26.2424057 20.56611633 25.42350769 C20.6202697 22.88655899 20.65413028 20.34979893 20.6875 17.8125 C20.72066874 16.09177059 20.75515799 14.3710661 20.79101562 12.65039062 C20.87599873 8.43372978 20.94278542 4.21712536 21 0 C24.96 0 28.92 0 33 0 C33.12391543 5.72908701 33.21448818 11.45738824 33.2746582 17.1875 C33.29974946 19.13522943 33.33383061 21.0828652 33.37719727 23.03027344 C33.43808749 25.8355219 33.46626331 28.63952208 33.48828125 31.4453125 C33.51408768 32.31116974 33.5398941 33.17702698 33.56648254 34.06912231 C33.56844607 38.33457184 33.35364906 41.12432209 30.62011719 44.51245117 C25.27281764 49.58919689 20.19502118 49.37809858 13.1015625 49.25 C8.13678059 48.84981607 5.42265092 47.3519754 1.87207031 43.9777832 C-0.7598933 39.79128604 -0.50545637 36.38770428 -0.390625 31.54296875 C-0.38496521 30.64000565 -0.37930542 29.73704254 -0.37347412 28.80671692 C-0.35114895 25.93309697 -0.30096018 23.06074072 -0.25 20.1875 C-0.22992999 18.2350441 -0.2116801 16.28256858 -0.1953125 14.33007812 C-0.15129682 9.55290122 -0.08229626 4.7766646 0 0 Z " fill="#FFFFFF" transform="translate(220,26)"/>
<path d="M0 0 C1.90265625 0.00193359 1.90265625 0.00193359 3.84375 0.00390625 C8.69448813 0.57915404 12.16605185 1.88122716 15.375 5.625 C16.89743825 9.43109562 16.70762651 12.35417861 16.5 16.4375 C12.21 16.4375 7.92 16.4375 3.5 16.4375 C3.17 14.4575 2.84 12.4775 2.5 10.4375 C0.85 10.4375 -0.8 10.4375 -2.5 10.4375 C-2.47857408 12.81654211 -2.47857408 12.81654211 -1.5 15.4375 C1.26576062 17.54694995 1.26576062 17.54694995 4.6875 19.3125 C15.27082395 25.46096224 15.27082395 25.46096224 17.5 30.4375 C18.33566384 35.42987102 18.20331675 39.7495398 16.25 44.4375 C13.56916184 47.50131504 11.37247612 49.14667463 7.5 50.4375 C5.23236426 50.58398082 2.95967634 50.6584626 0.6875 50.6875 C-1.11654297 50.72617188 -1.11654297 50.72617188 -2.95703125 50.765625 C-7.90561289 50.30732196 -11.15343643 48.60688415 -14.875 45.375 C-17.30524582 40.98186333 -16.76546519 37.41497239 -16.5 32.4375 C-12.21 32.4375 -7.92 32.4375 -3.5 32.4375 C-3.17 34.7475 -2.84 37.0575 -2.5 39.4375 C-0.84385343 39.81968767 0.82457024 40.15145102 2.5 40.4375 C3.71052251 39.39515905 3.71052251 39.39515905 4.08203125 37.21875 C3.37181474 33.82496371 2.70004425 33.57167127 -0.11328125 31.71875 C-1.66901412 30.7738652 -3.23606378 29.84742357 -4.8125 28.9375 C-14.5770036 23.21817632 -14.5770036 23.21817632 -16.5 18.4375 C-17.22743104 14.27260071 -16.94311288 10.54528219 -15.375 6.625 C-10.89671087 1.40032935 -6.79313451 -0.10355388 0 0 Z " fill="#FFFFFF" transform="translate(192.5,24.5625)"/>
<path d="M0 0 C7.26 0 14.52 0 22 0 C26.94273173 24.36200187 26.94273173 24.36200187 28.8125 34.6875 C29.16248047 36.61142578 29.16248047 36.61142578 29.51953125 38.57421875 C30 42 30 42 30 48 C25.71 48 21.42 48 17 48 C14.83784329 36.02379867 12.86140571 24.02652907 11 12 C10.85377197 13.0194873 10.70754395 14.03897461 10.55688477 15.08935547 C10.01431777 18.86558112 9.46720372 22.64113622 8.91870117 26.41650391 C8.6817786 28.0517406 8.44609563 29.6871574 8.21166992 31.32275391 C7.87482916 33.67138148 7.53356053 36.0193289 7.19140625 38.3671875 C7.08719864 39.10057343 6.98299103 39.83395935 6.87562561 40.58956909 C6.11387171 45.77225659 6.11387171 45.77225659 5 48 C0.71 48 -3.58 48 -8 48 C-7.3983991 37.52706044 -5.50388086 27.50770568 -3.4375 17.25 C-3.10421381 15.57043222 -2.77152716 13.89074536 -2.43945312 12.2109375 C-1.63429323 8.13895677 -0.81692732 4.06970583 0 0 Z " fill="#FFFFFF" transform="translate(74,26)"/>
</svg>
