<?xml version="1.0" encoding="UTF-8"?>
<svg version="1.1" xmlns="http://www.w3.org/2000/svg" width="372" height="175">
<path d="M0 0 C16.404279 12.73064469 26.46924152 30.47191833 29.6484375 50.96484375 C31.16387069 74.83291651 25.16131881 94.71948212 9.7109375 113.08984375 C1.79740916 121.56181385 -8.23873967 127.92028471 -19.1015625 131.90234375 C-20.16117187 132.29421875 -21.22078125 132.68609375 -22.3125 133.08984375 C-42.00478394 139.34964262 -63.49252955 137.17294051 -81.7890625 127.90234375 C-100.19136509 117.92451256 -112.55751092 101.52356374 -118.8515625 81.65234375 C-124.55759207 62.41108124 -121.36552772 42.03242203 -112.30004883 24.49291992 C-102.49105751 6.46685531 -86.5986197 -6.03776009 -67.1015625 -12.09765625 C-43.54197073 -18.10248843 -19.99456989 -13.52277586 0 0 Z " fill="#FDFDFD" transform="translate(338.1015625,18.09765625)"/>
<path d="M0 0 C5.85174239 3.90116159 9.30224463 9.12163964 11.6171875 15.7734375 C13.32536175 25.70873671 13.1098155 37.13296722 8 46 C4.43088802 50.78826409 -0.00789574 54.8036965 -6 56 C-13.79079728 56.82742358 -20.20271265 57.01246879 -26.64453125 52.19140625 C-27.45001534 51.48341591 -28.24169435 50.75830565 -29 50 C-29.33 57.59 -29.66 65.18 -30 73 C-36.27 73 -42.54 73 -49 73 C-49 48.25 -49 23.5 -49 -2 C-42.73 -2 -36.46 -2 -30 -2 C-29.67 -0.02 -29.34 1.96 -29 4 C-27.700625 2.824375 -27.700625 2.824375 -26.375 1.625 C-18.61556179 -4.7598058 -8.6554409 -4.52943624 0 0 Z M-27.875 17.5 C-30.96408839 21.61878452 -30.55418532 27.11861419 -30 32 C-28.37915526 35.24168949 -27.05801565 37.19736744 -24.1875 39.375 C-19.90437443 40.59875016 -16.31770435 40.59895652 -12.25 38.75 C-8.45532779 35.79858828 -7.23746724 34.01771676 -6.125 29.25 C-5.70617445 24.67710875 -6.77557673 20.98925496 -9 17 C-14.60689704 11.0064204 -21.9504817 12.76038536 -27.875 17.5 Z " fill="#FFFFFF" transform="translate(203,98)"/>
<path d="M0 0 C6.9822177 3.9354318 12.11811793 8.10958552 14.4375 15.9375 C14.4375 17.5875 14.4375 19.2375 14.4375 20.9375 C7.8375 20.9375 1.2375 20.9375 -5.5625 20.9375 C-6.5525 18.9575 -7.5425 16.9775 -8.5625 14.9375 C-11.45322953 13.60841833 -11.45322953 13.60841833 -14.5625 13.9375 C-17.14583333 15.35416667 -17.14583333 15.35416667 -18.5625 17.9375 C-18.41900653 21.13704954 -18.41900653 21.13704954 -17.5625 23.9375 C-16.76714844 24.19273438 -15.97179687 24.44796875 -15.15234375 24.7109375 C10.14616142 33.35482283 10.14616142 33.35482283 15.4375 43.9375 C16.24365402 52.19292531 16.60824845 59.43858173 11.22265625 66.19921875 C4.45661209 72.78759873 -2.98727792 73.23079758 -11.98754883 73.2565918 C-19.63973265 73.13012965 -25.67480329 71.20347321 -31.9375 66.75 C-36.68171536 61.66691212 -38.5625 56.86627282 -38.5625 49.9375 C-32.2925 49.9375 -26.0225 49.9375 -19.5625 49.9375 C-18.5725 51.9175 -17.5825 53.8975 -16.5625 55.9375 C-13.97491775 57.9897204 -12.76597634 57.94970858 -9.4375 57.75 C-6.26042816 57.18838039 -6.26042816 57.18838039 -4.5625 53.9375 C-4.57172702 51.39036596 -4.57172702 51.39036596 -5.5625 48.9375 C-8.22541837 46.62131196 -10.82309887 45.28693741 -14.1171875 44.0703125 C-14.97957031 43.74160156 -15.84195312 43.41289063 -16.73046875 43.07421875 C-18.52574442 42.40325714 -20.32261301 41.73654135 -22.12109375 41.07421875 C-28.72113727 38.54633323 -33.49009193 36.18911265 -37.40234375 30.05078125 C-39.75656637 23.73322089 -39.93277816 16.49620774 -37.49609375 10.16796875 C-30.15015956 -1.90178142 -12.76887551 -4.1793709 0 0 Z " fill="#FFFFFF" transform="translate(42.5625,81.0625)"/>
<path d="M0 0 C6.27 0 12.54 0 19 0 C19.33 11.55 19.66 23.1 20 35 C21.85625 31.865 23.7125 28.73 25.625 25.5 C28.64251761 20.9455891 31.45087621 16.81280885 36.82226562 15.10009766 C43.25857983 14.32535613 49.62690859 14.93089271 56 16 C54.67353054 18.85906882 53.18097205 21.18514288 51.171875 23.609375 C50.61886719 24.28226563 50.06585938 24.95515625 49.49609375 25.6484375 C48.63177734 26.68871094 48.63177734 26.68871094 47.75 27.75 C43.35372107 33.06596027 39.0912012 38.44473588 35 44 C36.82635681 47.88739682 39.3220833 50.90472853 42.125 54.125 C43.11552229 55.28044573 44.10509652 56.43670483 45.09375 57.59375 C45.82851562 58.45226562 45.82851562 58.45226562 46.578125 59.328125 C48.62530479 61.73524849 50.63348494 64.17168435 52.625 66.625 C53.25664063 67.40101563 53.88828125 68.17703125 54.5390625 68.9765625 C56 71 56 71 57 74 C38.4782494 76.05338222 38.4782494 76.05338222 33.05712891 72.85302734 C29.457443 69.48861503 27.2771131 65.33913955 25 61 C23.35 58.36 21.7 55.72 20 53 C19.67 59.93 19.34 66.86 19 74 C12.73 74 6.46 74 0 74 C0 49.58 0 25.16 0 0 Z " fill="#FFFFFF" transform="translate(66,80)"/>
<path d="M0 0 C6.1980973 4.19133629 10.51943332 9.51414416 12 17 C12.86762775 26.03186267 11.11667752 32.32498371 6.125 39.8125 C0.58430498 45.51615663 -5.54961794 48.00077958 -13.4375 48.3125 C-20.97114969 48.10785077 -27.43196314 45.01548359 -33 40 C-38.59503963 32.8927875 -39.99838691 25.87455029 -39 17 C-36.90863681 9.76501382 -32.97394026 3.59819076 -26.4375 -0.3125 C-18.17335247 -4.36944515 -8.13649309 -4.58539653 0 0 Z " fill="#FFFFFF" transform="translate(197,19)"/>
<path d="M0 0 C6.27 0 12.54 0 19 0 C19 19.14 19 38.28 19 58 C12.73 58 6.46 58 0 58 C0 38.86 0 19.72 0 0 Z " fill="#FFFFFF" transform="translate(126,96)"/>
<path d="M0 0 C3.125 1.5 3.125 1.5 5 3 C5 2.01 5 1.02 5 0 C8.63 0 12.26 0 16 0 C16 10.89 16 21.78 16 33 C12.7 33 9.4 33 6 33 C5.67 31.68 5.34 30.36 5 29 C4.566875 29.474375 4.13375 29.94875 3.6875 30.4375 C0.44905282 33.43606221 -3.43444882 33.45527048 -7.64453125 33.4140625 C-11.83124387 32.6780898 -14.32899913 30.17181353 -17 27 C-20.29683974 21.69638824 -19.39362104 15.14702387 -18.3125 9.25 C-14.71785011 0.34896217 -8.68603387 -0.81815076 0 0 Z " fill="#080809" transform="translate(293,65)"/>
<path d="M0 0 C5.506875 -0.12375 5.506875 -0.12375 11.125 -0.25 C12.2711377 -0.28641602 13.41727539 -0.32283203 14.59814453 -0.36035156 C20.71745476 -0.42687747 24.39594456 -0.18201702 29 4 C31.32664593 7.91299544 31.39335225 11.51578435 31 16 C29.40093249 20.15757553 27.85311765 22.7122114 24 25 C19.36297289 26.5456757 14.87528349 26.05735628 10 26 C10 30.95 10 35.9 10 41 C6.7 41 3.4 41 0 41 C0 27.47 0 13.94 0 0 Z " fill="#050505" transform="translate(241,57)"/>
<path d="M0 0 C4.14812733 2.30362023 6.37627159 4.90579793 7.8125 9.4375 C8.76411348 14.47651996 8.22246976 18.34143683 5.6875 22.8125 C3.18148529 26.32652062 1.02329818 28.14186979 -3.1875 29.4375 C-8.5877551 30.21742715 -13.07624687 29.8196358 -17.6796875 26.7578125 C-21.04721166 23.80904782 -22.80908869 20.64164835 -23.56640625 16.23046875 C-23.81113475 11.59641625 -23.15163128 7.84965177 -20.58203125 3.9453125 C-15.03205652 -2.05550051 -7.3639615 -3.14431628 0 0 Z " fill="#FFFFFF" transform="translate(143.1875,52.5625)"/>
<path d="M0 0 C3.63 0 7.26 0 11 0 C13.7226616 5.91474762 16.06054986 11.78494386 18 18 C18.66 18 19.32 18 20 18 C20.09796875 17.45472656 20.1959375 16.90945312 20.296875 16.34765625 C21.46804835 10.4413079 23.41167776 5.43547671 26 0 C29.63 0 33.26 0 37 0 C34.43023791 8.38407992 30.91229448 16.30557854 27.375 24.3125 C26.47604858 26.34984993 25.57833314 28.38770016 24.68447876 30.42729187 C23.87922629 32.26451571 23.06938125 34.09972463 22.25927734 35.93481445 C20.87281318 39.09982613 20.87281318 39.09982613 20 43 C16.04 43 12.08 43 8 43 C8 42.34 8 41.68 8 41 C8.66 41 9.32 41 10 41 C10.35268934 39.3373217 10.68033861 37.66934283 11 36 C11.34309204 34.38617432 11.34309204 34.38617432 11.69311523 32.73974609 C12.05016683 28.3886591 11.25145718 26.18365399 9.47265625 22.2265625 C9.20488876 21.61734955 8.93712128 21.0081366 8.66123962 20.38046265 C7.81078681 18.45447309 6.93750845 16.53993995 6.0625 14.625 C5.19650977 12.68654556 4.33522414 10.74605229 3.47447205 8.80526733 C2.69630117 7.05773297 1.90712821 5.31511023 1.11743164 3.57275391 C0 1 0 1 0 0 Z " fill="#050506" transform="translate(312,65)"/>
<path d="M0 0 C2.17305273 1.60093261 2.90436939 2.48246962 3.3984375 5.15625 C3.39070313 5.9296875 3.38296875 6.703125 3.375 7.5 C3.38273437 8.2734375 3.39046875 9.046875 3.3984375 9.84375 C2.90436939 12.51753038 2.17305273 13.39906739 0 15 C-3.89504791 15.49573337 -6.09493717 15.58016848 -9.4375 13.4375 C-11.60396028 10.05782196 -11.56288002 7.94016013 -11 4 C-8.10582692 -0.51491 -5.12365602 -0.65210168 0 0 Z " fill="#F2F4F7" transform="translate(295,74)"/>
<path d="M0 0 C6.8359375 -0.1953125 6.8359375 -0.1953125 9 0 C11 2 11 2 11.3125 4.4375 C11 7 11 7 10 8.8125 C6.76011038 10.73618446 3.7174181 10.18282384 0 10 C0 6.7 0 3.4 0 0 Z " fill="#F6F8FA" transform="translate(251,65)"/>
</svg>
