<?xml version="1.0" encoding="UTF-8"?>
<svg version="1.1" xmlns="http://www.w3.org/2000/svg" width="354" height="100">
<path d="M0 0 C1.10986771 -0.00855011 1.10986771 -0.00855011 2.24215698 -0.01727295 C3.80367626 -0.02667907 5.365215 -0.03323938 6.92675781 -0.03710938 C9.27706021 -0.04676154 11.62646673 -0.0778036 13.9765625 -0.109375 C26.95132943 -0.20097088 39.12269162 0.79135055 49.08203125 9.953125 C57.37281072 18.6470502 59.31600549 28.80288871 59.3828125 40.49609375 C59.38851257 41.28276932 59.39421265 42.06944489 59.40008545 42.87995911 C59.40949443 44.53983229 59.41605303 46.1997238 59.41992188 47.85961914 C59.42959148 50.36573947 59.4606385 52.87102601 59.4921875 55.37695312 C59.57230694 67.45815304 58.76980766 79.19625017 51.1796875 89.203125 C45.93287724 94.44993526 40.3680271 97.49786196 33.1796875 99.203125 C32.48335205 99.37440918 31.7870166 99.54569336 31.06958008 99.72216797 C27.31182599 100.34756085 23.59934384 100.38522314 19.80078125 100.40625 C18.99286636 100.41195007 18.18495148 100.41765015 17.35255432 100.42352295 C15.6438222 100.43294726 13.93507211 100.43949669 12.22631836 100.44335938 C9.64989153 100.45300259 7.07428468 100.48402381 4.49804688 100.515625 C-9.01785953 100.60405033 -21.48131752 99.95237338 -31.8203125 90.203125 C-40.58308174 79.6618656 -41.32943662 66.0384384 -41.21142578 52.89233398 C-41.19535069 50.77066542 -41.21136617 48.65090804 -41.23046875 46.52929688 C-41.25087835 33.4228221 -40.25112576 20.41256562 -31.10546875 10.30859375 C-22.57389373 2.0212765 -11.52504825 0.0702757 0 0 Z M-21.8203125 31.203125 C-21.84495955 36.88142578 -21.86314712 42.55969569 -21.87524414 48.23803711 C-21.88028506 50.17131085 -21.88711769 52.10458076 -21.89575195 54.0378418 C-21.90782815 56.81039372 -21.91354307 59.58289541 -21.91796875 62.35546875 C-21.92313004 63.22525864 -21.92829132 64.09504852 -21.93360901 64.99119568 C-21.93380435 67.06218314 -21.88239418 69.13306824 -21.8203125 71.203125 C-20.84120665 72.40007776 -20.84120665 72.40007776 -19.0078125 72.3359375 C-18.2859375 72.33335938 -17.5640625 72.33078125 -16.8203125 72.328125 C-16.0984375 72.33070312 -15.3765625 72.33328125 -14.6328125 72.3359375 C-12.79941835 72.40007776 -12.79941835 72.40007776 -11.8203125 71.203125 C-11.7319158 68.8274398 -11.70500945 66.48103826 -11.72265625 64.10546875 C-11.72477867 63.04218102 -11.72477867 63.04218102 -11.72694397 61.95741272 C-11.73255807 59.68510788 -11.74511287 57.41290025 -11.7578125 55.140625 C-11.76282569 53.60351704 -11.76738891 52.06640755 -11.77148438 50.52929688 C-11.78253208 46.75386858 -11.79980609 42.97851329 -11.8203125 39.203125 C-8.56999466 39.34236038 -5.32015189 39.49066685 -2.0703125 39.640625 C-1.14992188 39.67994141 -0.22953125 39.71925781 0.71875 39.75976562 C1.60820313 39.80166016 2.49765625 39.84355469 3.4140625 39.88671875 C4.63947754 39.94170532 4.63947754 39.94170532 5.88964844 39.99780273 C8.1796875 40.203125 8.1796875 40.203125 12.1796875 41.203125 C12.5096875 51.433125 12.8396875 61.663125 13.1796875 72.203125 C16.1496875 72.203125 19.1196875 72.203125 22.1796875 72.203125 C22.27882324 67.45261681 22.35128014 62.70271524 22.39941406 57.95141602 C22.41948642 56.33640042 22.4467508 54.72145711 22.48144531 53.10668945 C22.53015965 50.78057999 22.55269904 48.45543407 22.5703125 46.12890625 C22.59095764 45.41100418 22.61160278 44.69310211 22.63287354 43.95344543 C22.63442822 40.45259068 22.2734962 38.36041377 20.46777344 35.33276367 C15.7645031 30.95518929 11.22371988 30.92145947 5.03515625 31.0078125 C4.26536942 31.0106424 3.49558258 31.01347229 2.70246887 31.01638794 C0.25721325 31.02753343 -2.18766862 31.05262719 -4.6328125 31.078125 C-6.29621865 31.0881621 -7.95963057 31.09728667 -9.62304688 31.10546875 C-13.68894487 31.12745427 -17.75456544 31.16194486 -21.8203125 31.203125 Z M30.1796875 31.203125 C30.1796875 44.733125 30.1796875 58.263125 30.1796875 72.203125 C33.1496875 72.203125 36.1196875 72.203125 39.1796875 72.203125 C39.1796875 58.673125 39.1796875 45.143125 39.1796875 31.203125 C36.2096875 31.203125 33.2396875 31.203125 30.1796875 31.203125 Z M-3.8203125 48.203125 C-3.90745081 49.91084858 -3.92731257 51.62211149 -3.91796875 53.33203125 C-3.91474609 54.36650391 -3.91152344 55.40097656 -3.90820312 56.46679688 C-3.89982422 57.55541016 -3.89144531 58.64402344 -3.8828125 59.765625 C-3.87830078 60.85810547 -3.87378906 61.95058594 -3.86914062 63.07617188 C-3.85731076 65.78520995 -3.84082793 68.49414099 -3.8203125 71.203125 C-0.8503125 71.203125 2.1196875 71.203125 5.1796875 71.203125 C5.20855986 67.39064074 5.22644242 63.5781843 5.2421875 59.765625 C5.25056641 58.67701172 5.25894531 57.58839844 5.26757812 56.46679688 C5.27080078 55.43232422 5.27402344 54.39785156 5.27734375 53.33203125 C5.28258057 52.37369385 5.28781738 51.41535645 5.29321289 50.42797852 C5.4302188 48.23027161 5.4302188 48.23027161 4.1796875 47.203125 C-0.136565 46.66046387 -0.136565 46.66046387 -3.8203125 48.203125 Z " fill="#FCFCFC" transform="translate(40.8203125,-0.203125)"/>
<path d="M0 0 C3.36460876 0.42277806 5.86433102 0.18521302 9.1875 -0.5625 C14.84814897 -1.05520639 21.50249289 -1.19815032 26.1875 2.4375 C30.35963669 9.05209484 29.52430077 16.29128678 29.375 23.875 C29.35469727 25.83083008 29.35469727 25.83083008 29.33398438 27.82617188 C29.29877334 31.03037622 29.24952094 34.23372105 29.1875 37.4375 C25.8875 37.4375 22.5875 37.4375 19.1875 37.4375 C19.16244385 36.66035645 19.1373877 35.88321289 19.11157227 35.08251953 C18.99583204 31.57566931 18.87300648 28.06910255 18.75 24.5625 C18.71068359 23.33917969 18.67136719 22.11585937 18.63085938 20.85546875 C18.58896484 19.68886719 18.54707031 18.52226563 18.50390625 17.3203125 C18.44891968 15.70213623 18.44891968 15.70213623 18.39282227 14.05126953 C18.35373357 11.45680464 18.35373357 11.45680464 17.1875 9.4375 C14.2175 9.4375 11.2475 9.4375 8.1875 9.4375 C7.8575 18.6775 7.5275 27.9175 7.1875 37.4375 C3.8875 37.4375 0.5875 37.4375 -2.8125 37.4375 C-2.83755615 36.62482666 -2.8626123 35.81215332 -2.88842773 34.97485352 C-3.00399118 31.31639248 -3.12689584 27.65821472 -3.25 24 C-3.28931641 22.72060547 -3.32863281 21.44121094 -3.36914062 20.12304688 C-3.41103516 18.90810547 -3.45292969 17.69316406 -3.49609375 16.44140625 C-3.53275146 15.31549072 -3.56940918 14.1895752 -3.60717773 13.02954102 C-3.52468045 10.50896559 -3.52468045 10.50896559 -4.8125 9.4375 C-6.33178038 9.36570036 -7.85417482 9.35357993 -9.375 9.375 C-10.20128906 9.38402344 -11.02757812 9.39304687 -11.87890625 9.40234375 C-12.51699219 9.41394531 -13.15507812 9.42554688 -13.8125 9.4375 C-13.83755615 10.17911377 -13.8626123 10.92072754 -13.88842773 11.68481445 C-14.00436132 15.04005328 -14.12709985 18.39500944 -14.25 21.75 C-14.28931641 22.91724609 -14.32863281 24.08449219 -14.36914062 25.28710938 C-14.41103516 26.40537109 -14.45292969 27.52363281 -14.49609375 28.67578125 C-14.55108032 30.2232605 -14.55108032 30.2232605 -14.60717773 31.80200195 C-14.8125 34.4375 -14.8125 34.4375 -15.8125 37.4375 C-18.7825 37.4375 -21.7525 37.4375 -24.8125 37.4375 C-24.91153473 32.95351216 -24.98404483 28.47010708 -25.03222656 23.98535156 C-25.05231599 22.46049915 -25.07959316 20.93572352 -25.11425781 19.41113281 C-25.16289796 17.21660402 -25.18549396 15.02309531 -25.203125 12.828125 C-25.22407227 11.50844727 -25.24501953 10.18876953 -25.26660156 8.82910156 C-24.8125 5.4375 -24.8125 5.4375 -22.95214844 3.05371094 C-16.24477215 -2.01279192 -7.9060098 -1.00142791 0 0 Z " fill="#FFFFFF" transform="translate(304.8125,31.5625)"/>
<path d="M0 0 C1.08764648 -0.03673828 1.08764648 -0.03673828 2.19726562 -0.07421875 C7.7622447 -0.10421864 10.99664966 1.17485394 15.5625 4.375 C20.05069837 11.40651078 20.72076305 19.83066733 19.03125 27.91796875 C17.98932408 31.3891676 17.14852798 33.78897202 14.5625 36.375 C9.92400777 38.69424611 5.81207356 38.59262863 0.75 38.625 C-0.04470703 38.645625 -0.83941406 38.66625 -1.65820312 38.6875 C-6.66396997 38.72062335 -10.14285941 38.22525474 -14.4375 35.375 C-17.41193034 32.3942679 -17.89134521 30.09720024 -17.9375 25.9375 C-17.80606162 22.14600816 -17.58297538 20.61260979 -15.5625 17.3125 C-9.04062298 13.26893625 -0.99362805 12.67475537 6.5625 13.375 C7.2225 13.705 7.8825 14.035 8.5625 14.375 C7.83944958 12.35458025 7.83944958 12.35458025 6.5625 10.375 C-0.72096303 8.73034706 -7.19689206 9.89257435 -14.4375 11.375 C-14.4375 8.405 -14.4375 5.435 -14.4375 2.375 C-9.4957585 0.42328535 -5.23175078 0.00925155 0 0 Z M-8.4375 24.375 C-8.27242354 26.95040213 -8.27242354 26.95040213 -7.4375 29.375 C-4.84996844 30.66876578 -2.88791015 30.54332397 0 30.5625 C0.96808594 30.57667969 1.93617188 30.59085938 2.93359375 30.60546875 C5.79516727 30.56649451 5.79516727 30.56649451 8.5625 28.375 C8.8127157 25.29134129 8.8127157 25.29134129 8.5625 22.375 C6.10387599 22.32116152 3.6464245 22.28140962 1.1875 22.25 C0.48882812 22.23324219 -0.20984375 22.21648438 -0.9296875 22.19921875 C-5.14240465 22.00642218 -5.14240465 22.00642218 -8.4375 24.375 Z " fill="#FFFFFF" transform="translate(205.4375,30.625)"/>
<path d="M0 0 C4.50189468 3.91664837 5.7521354 7.81112657 6.203125 13.61328125 C6.3111387 19.83307032 5.8392528 24.41939966 3 30 C-2.04937154 34.92313725 -6.53234312 35.20391567 -13.3125 35.25 C-14.05951172 35.270625 -14.80652344 35.29125 -15.57617188 35.3125 C-20.47092937 35.34687933 -23.7475757 34.675324 -28 32 C-33.49646194 26.20643201 -33.29735581 20.91637355 -33.2109375 13.19921875 C-32.84101188 7.58868011 -31.31332671 3.93460166 -27.0625 0.125 C-19.68694519 -4.99273191 -7.63493491 -4.7364874 0 0 Z M-22 9 C-23.98599116 12.97198231 -23.52906073 17.68037471 -23 22 C-21.28944376 25.37768449 -21.28944376 25.37768449 -18 27 C-13.29992324 28.01140892 -10.08403308 27.6415706 -5.9375 25.1875 C-3.07966843 20.48590613 -3.18027906 16.36033203 -4 11 C-5.04188283 7.63417146 -5.04188283 7.63417146 -8 6 C-15.87804142 4.80507847 -15.87804142 4.80507847 -22 9 Z " fill="#FFFFFF" transform="translate(265,34)"/>
<path d="M0 0 C4.15831829 -0.62374774 7.86511349 -0.85723257 12 0 C15.37049589 2.91088281 17.69708636 6.20696577 20 10 C20.43828125 9.278125 20.8765625 8.55625 21.328125 7.8125 C26.44660194 0.32204594 26.44660194 0.32204594 31.203125 -0.6640625 C34.19162017 -0.62865379 37.04574119 -0.44313882 40 0 C39.40336514 3.09893927 38.4698686 5.00292174 36.49609375 7.453125 C35.75649414 8.38125 35.75649414 8.38125 35.00195312 9.328125 C34.48568359 9.96234375 33.96941406 10.5965625 33.4375 11.25 C32.91736328 11.8996875 32.39722656 12.549375 31.86132812 13.21875 C30.580156 14.81727669 29.29085995 16.40928626 28 18 C28.36351562 18.4846875 28.72703125 18.969375 29.1015625 19.46875 C30.15812594 20.87750125 31.21267515 22.28776454 32.265625 23.69921875 C33.40691 25.2132207 34.56288228 26.71628038 35.734375 28.20703125 C36.27578125 28.90183594 36.8171875 29.59664062 37.375 30.3125 C37.87773437 30.94800781 38.38046875 31.58351563 38.8984375 32.23828125 C40 34 40 34 40 37 C35.84571919 37.61393313 32.12727429 37.87376915 28 37 C24.89168104 34.06178805 22.92611712 30.79797742 21 27 C17.30575299 30.57793277 17.30575299 30.57793277 14.4375 34.8125 C10.76867627 38.10503411 7.24803668 37.37521685 2.484375 37.17578125 C1.25460938 37.08876953 1.25460938 37.08876953 0 37 C0.59663486 33.90106073 1.5301314 31.99707826 3.50390625 29.546875 C3.99697266 28.928125 4.49003906 28.309375 4.99804688 27.671875 C5.51431641 27.03765625 6.03058594 26.4034375 6.5625 25.75 C7.08263672 25.1003125 7.60277344 24.450625 8.13867188 23.78125 C9.419844 22.18272331 10.70914005 20.59071374 12 19 C9.18622354 13.99166002 5.59394663 9.86695541 1.86328125 5.5234375 C0 3 0 3 0 0 Z " fill="#FFFFFF" transform="translate(119,32)"/>
<path d="M0 0 C3.3 0 6.6 0 10 0 C10 12.21 10 24.42 10 37 C6.7 37 3.4 37 0 37 C0 24.79 0 12.58 0 0 Z " fill="#FFFFFF" transform="translate(168,32)"/>
<path d="M0 0 C2.97 0 5.94 0 9 0 C9 12.21 9 24.42 9 37 C6.03 37 3.06 37 0 37 C0 24.79 0 12.58 0 0 Z " fill="#FFFFFF" transform="translate(345,32)"/>
</svg>
